999
dxfrw 0.6.3
  0
SECTION
  2
HEADER
  9
$ACADVER
  1
AC1021
  9
$DWGCODEPAGE
  3
ANSI_1252
  9
$INSBASE
 10
0
 20
0
 30
0
  9
$EXTMIN
 10
111.9174805034495
 20
92.74638664356814
 30
0
  9
$EXTMAX
 10
485.9190782742907
 20
466.7479844144092
 30
0
  9
$LIMMIN
 10
0
 20
0
  9
$LIMMAX
 10
420
 20
297
  9
$ORTHOMODE
 70
    0
  9
$REGENMODE
 70
    1
  9
$FILLMODE
 70
    1
  9
$QTEXTMODE
 70
    0
  9
$MIRRTEXT
 70
    0
  9
$LTSCALE
 40
1
  9
$ATTMODE
 70
    0
  9
$TEXTSIZE
 40
2.5
  9
$TRACEWID
 40
15.68
  9
$TEXTSTYLE
  7
STANDARD
  9
$CLAYER
  8
paaltjes
  9
$CELTYPE
  6
BYLAYER
  9
$CECOLOR
 62
  256
  9
$CELTSCALE
 40
1
  9
$DISPSILH
 70
    0
  9
$DIMSCALE
 40
1
  9
$DIMASZ
 40
2.5
  9
$DIMEXO
 40
0.625
  9
$DIMDLI
 40
3.75
  9
$DIMRND
 40
0
  9
$DIMDLE
 40
0
  9
$DIMEXE
 40
1.25
  9
$DIMTP
 40
0
  9
$DIMTM
 40
0
  9
$DIMTXT
 40
2.5
  9
$DIMCEN
 40
2.5
  9
$DIMTSZ
 40
0
  9
$DIMTOL
 70
    0
  9
$DIMLIM
 70
    0
  9
$DIMTIH
 70
    0
  9
$DIMTOH
 70
    0
  9
$DIMSE1
 70
    0
  9
$DIMSE2
 70
    0
  9
$DIMTAD
 70
    1
  9
$DIMZIN
 70
    8
  9
$DIMBLK
  1

  9
$DIMASO
 70
    1
  9
$DIMSHO
 70
    1
  9
$DIMPOST
  1

  9
$DIMAPOST
  1

  9
$DIMALT
 70
    0
  9
$DIMALTD
 70
    3
  9
$DIMALTF
 40
0.03937
  9
$DIMLFAC
 40
1
  9
$DIMTOFL
 70
    1
  9
$DIMTVP
 40
0
  9
$DIMTIX
 70
    0
  9
$DIMSOXD
 70
    0
  9
$DIMSAH
 70
    0
  9
$DIMBLK1
  1

  9
$DIMBLK2
  1

  9
$DIMSTYLE
  2
Standard
  9
$DIMCLRD
 70
    0
  9
$DIMCLRE
 70
    0
  9
$DIMCLRT
 70
    0
  9
$DIMTFAC
 40
1
  9
$DIMGAP
 40
0.625
  9
$DIMJUST
 70
    0
  9
$DIMSD1
 70
    0
  9
$DIMSD2
 70
    0
  9
$DIMTOLJ
 70
    0
  9
$DIMTZIN
 70
    8
  9
$DIMALTZ
 70
    0
  9
$DIMALTTZ
 70
    0
  9
$DIMUPT
 70
    0
  9
$DIMDEC
 70
    2
  9
$DIMTDEC
 70
    2
  9
$DIMALTU
 70
    2
  9
$DIMALTTD
 70
    3
  9
$DIMTXSTY
  7
standard
  9
$DIMAUNIT
 70
    0
  9
$DIMADEC
 70
    0
  9
$DIMALTRND
 40
0
  9
$DIMAZIN
 70
    0
  9
$DIMDSEP
 70
   44
  9
$DIMATFIT
 70
    3
  9
$DIMFRAC
 70
    0
  9
$DIMLDRBLK
  1
STANDARD
  9
$DIMLUNIT
 70
    2
  9
$DIMLWD
 70
   -2
  9
$DIMLWE
 70
   -2
  9
$DIMTMOVE
 70
    0
  9
$DIMFXL
 40
1
  9
$DIMFXLON
 70
    0
  9
$DIMJOGANG
 40
0.7854
  9
$DIMTFILL
 70
    0
  9
$DIMTFILLCLR
 70
    0
  9
$DIMARCSYM
 70
    0
  9
$DIMLTYPE
  6

  9
$DIMLTEX1
  6

  9
$DIMLTEX2
  6

  9
$LUNITS
 70
    2
  9
$LUPREC
 70
    4
  9
$SKETCHINC
 40
1
  9
$FILLETRAD
 40
0
  9
$AUNITS
 70
    0
  9
$AUPREC
 70
    2
  9
$MENU
  1
.
  9
$ELEVATION
 40
0
  9
$PELEVATION
 40
0
  9
$THICKNESS
 40
0
  9
$LIMCHECK
 70
    0
  9
$CHAMFERA
 40
0
  9
$CHAMFERB
 40
0
  9
$CHAMFERC
 40
0
  9
$CHAMFERD
 40
0
  9
$SKPOLY
 70
    0
  9
$USRTIMER
 70
    1
  9
$ANGBASE
 50
0
  9
$ANGDIR
 70
    0
  9
$PDMODE
 70
   34
  9
$PDSIZE
 40
0
  9
$PLINEWID
 40
0
  9
$SPLFRAME
 70
    0
  9
$SPLINETYPE
 70
    2
  9
$SPLINESEGS
 70
    8
  9
$HANDSEED
  5
20000
  9
$SURFTAB1
 70
    6
  9
$SURFTAB2
 70
    6
  9
$SURFTYPE
 70
    6
  9
$SURFU
 70
    6
  9
$SURFV
 70
    6
  9
$UCSBASE
  2

  9
$UCSNAME
  2

  9
$UCSORG
 10
0
 20
0
 30
0
  9
$UCSXDIR
 10
1
 20
0
 30
0
  9
$UCSYDIR
 10
0
 20
1
 30
0
  9
$UCSORTHOREF
  2

  9
$UCSORTHOVIEW
 70
    0
  9
$UCSORGTOP
 10
0
 20
0
 30
0
  9
$UCSORGBOTTOM
 10
0
 20
0
 30
0
  9
$UCSORGLEFT
 10
0
 20
0
 30
0
  9
$UCSORGRIGHT
 10
0
 20
0
 30
0
  9
$UCSORGFRONT
 10
0
 20
0
 30
0
  9
$UCSORGBACK
 10
0
 20
0
 30
0
  9
$PUCSBASE
  2

  9
$PUCSNAME
  2

  9
$PUCSORG
 10
0
 20
0
 30
0
  9
$PUCSXDIR
 10
1
 20
0
 30
0
  9
$PUCSYDIR
 10
0
 20
1
 30
0
  9
$PUCSORTHOREF
  2

  9
$PUCSORTHOVIEW
 70
    0
  9
$PUCSORGTOP
 10
0
 20
0
 30
0
  9
$PUCSORGBOTTOM
 10
0
 20
0
 30
0
  9
$PUCSORGLEFT
 10
0
 20
0
 30
0
  9
$PUCSORGRIGHT
 10
0
 20
0
 30
0
  9
$PUCSORGFRONT
 10
0
 20
0
 30
0
  9
$PUCSORGBACK
 10
0
 20
0
 30
0
  9
$USERI1
 70
    0
  9
$USERI2
 70
    0
  9
$USERI3
 70
    0
  9
$USERI4
 70
    0
  9
$USERI5
 70
    0
  9
$USERR1
 40
0
  9
$USERR2
 40
0
  9
$USERR3
 40
0
  9
$USERR4
 40
0
  9
$USERR5
 40
0
  9
$WORLDVIEW
 70
    1
  9
$SHADEDGE
 70
    3
  9
$SHADEDIF
 70
   70
  9
$TILEMODE
 70
    1
  9
$MAXACTVP
 70
   64
  9
$PINSBASE
 10
0
 20
0
 30
0
  9
$PLIMCHECK
 70
    0
  9
$PEXTMIN
 10
0
 20
0
 30
0
  9
$PEXTMAX
 10
0
 20
0
 30
0
  9
$GRIDMODE
 70
    1
  9
$SNAPSTYLE
 70
    0
  9
$GRIDUNIT
 10
0
 20
0
  9
$PLIMMIN
 10
0
 20
0
  9
$PLIMMAX
 10
210
 20
297
  9
$UNITMODE
 70
    0
  9
$VISRETAIN
 70
    1
  9
$PLINEGEN
 70
    0
  9
$PSLTSCALE
 70
    1
  9
$TREEDEPTH
 70
 3020
  9
$CMLSTYLE
  2
Standard
  9
$CMLJUST
 70
    0
  9
$CMLSCALE
 40
20
  9
$PROXYGRAPHICS
 70
    1
  9
$MEASUREMENT
 70
    1
  9
$CELWEIGHT
370
   -1
  9
$ENDCAPS
280
    0
  9
$JOINSTYLE
280
    0
  9
$LWDISPLAY
290
    0
  9
$INSUNITS
 70
    4
  9
$HYPERLINKBASE
  1

  9
$STYLESHEET
  1

  9
$XEDIT
290
    1
  9
$CEPSNTYPE
380
    0
  9
$PSTYLEMODE
290
    1
  9
$EXTNAMES
290
    1
  9
$PSVPSCALE
 40
1
  9
$OLESTARTUP
290
    0
  9
$SORTENTS
280
  127
  9
$INDEXCTL
280
    0
  9
$HIDETEXT
280
    1
  9
$XCLIPFRAME
290
    0
  9
$HALOGAP
280
    0
  9
$OBSCOLOR
 70
  257
  9
$OBSLTYPE
280
    0
  9
$INTERSECTIONDISPLAY
280
    0
  9
$INTERSECTIONCOLOR
 70
  257
  9
$DIMASSOC
280
    1
  9
$PROJECTNAME
  1

  9
$CAMERADISPLAY
290
    0
  9
$LENSLENGTH
 40
50
  9
$CAMERAHEIGHT
 40
0
  9
$STEPSPERSEC
 40
2
  9
$STEPSIZE
 40
50
  9
$3DDWFPREC
 40
2
  9
$PSOLWIDTH
 40
5
  9
$PSOLHEIGHT
 40
80
  9
$LOFTANG1
 40
1.570796326794897
  9
$LOFTANG2
 40
1.570796326794897
  9
$LOFTMAG1
 40
0
  9
$LOFTMAG2
 40
0
  9
$LOFTPARAM
 70
    7
  9
$LOFTNORMALS
280
    1
  9
$LATITUDE
 40
1
  9
$LONGITUDE
 40
1
  9
$NORTHDIRECTION
 40
0
  9
$TIMEZONE
 70
-8000
  9
$LIGHTGLYPHDISPLAY
280
    1
  9
$TILEMODELIGHTSYNCH
280
    1
  9
$SOLIDHIST
280
    1
  9
$SHOWHIST
280
    1
  9
$DWFFRAME
280
    2
  9
$DGNFRAME
280
    0
  9
$REALWORLDSCALE
290
    1
  9
$INTERFERECOLOR
 62
    1
  9
$CSHADOW
280
    0
  9
$SHADOWPLANELOCATION
 40
0
  0
ENDSEC
  0
SECTION
  2
CLASSES
  0
ENDSEC
  0
SECTION
  2
TABLES
  0
TABLE
  2
VPORT
  5
8
330
0
100
AcDbSymbolTable
 70
    1
  0
VPORT
  5
31
330
2
100
AcDbSymbolTableRecord
100
AcDbViewportTableRecord
  2
*ACTIVE
 70
    0
 10
0
 20
0
 11
1
 21
1
 12
335.4633661143335
 22
251.3132335975176
 13
0
 23
0
 14
10
 24
10
 15
10
 25
10
 16
0
 26
0
 36
1
 17
0
 27
0
 37
0
 40
485.9480625520628
 41
1.865834633385336
 42
50
 43
0
 44
0
 50
0
 51
0
 71
    0
 72
  100
 73
    1
 74
    3
 75
    0
 76
    1
 77
    0
 78
    0
281
    0
 65
    1
110
0
120
0
130
0
111
1
121
0
131
0
112
0
122
1
132
0
 79
    0
146
0
348
10020
 60
    7
 61
    5
292
1
282
    1
141
0
142
0
 63
  250
421
3358443
  0
ENDTAB
  0
TABLE
  2
LTYPE
  5
5
330
0
100
AcDbSymbolTable
 70
    4
  0
LTYPE
  5
14
330
5
100
AcDbSymbolTableRecord
100
AcDbLinetypeTableRecord
  2
ByBlock
 70
    0
  3

 72
   65
 73
    0
 40
0
  0
LTYPE
  5
15
330
5
100
AcDbSymbolTableRecord
100
AcDbLinetypeTableRecord
  2
ByLayer
 70
    0
  3

 72
   65
 73
    0
 40
0
  0
LTYPE
  5
16
330
5
100
AcDbSymbolTableRecord
100
AcDbLinetypeTableRecord
  2
Continuous
 70
    0
  3
Solid line
 72
   65
 73
    0
 40
0
  0
LTYPE
  5
32
330
5
100
AcDbSymbolTableRecord
100
AcDbLinetypeTableRecord
  2
DOT
 70
    0
  3
Dot . . . . . . . . . . . . . . . . . . . . . .
 72
   65
 73
    2
 40
6.35
 49
0
 74
    0
 49
-6.35
 74
    0
  0
LTYPE
  5
33
330
5
100
AcDbSymbolTableRecord
100
AcDbLinetypeTableRecord
  2
DOTTINY
 70
    0
  3
Dot (.15x) .....................................
 72
   65
 73
    2
 40
0.9525
 49
0
 74
    0
 49
-0.9525
 74
    0
  0
LTYPE
  5
34
330
5
100
AcDbSymbolTableRecord
100
AcDbLinetypeTableRecord
  2
DOT2
 70
    0
  3
Dot (.5x) .....................................
 72
   65
 73
    2
 40
3.175
 49
0
 74
    0
 49
-3.175
 74
    0
  0
LTYPE
  5
35
330
5
100
AcDbSymbolTableRecord
100
AcDbLinetypeTableRecord
  2
DOTX2
 70
    0
  3
Dot (2x) .  .  .  .  .  .  .  .  .  .  .  .  .
 72
   65
 73
    2
 40
12.7
 49
0
 74
    0
 49
-12.7
 74
    0
  0
LTYPE
  5
36
330
5
100
AcDbSymbolTableRecord
100
AcDbLinetypeTableRecord
  2
DASHED
 70
    0
  3
Dashed _ _ _ _ _ _ _ _ _ _ _ _ _ _ _ _ _
 72
   65
 73
    2
 40
19.05
 49
12.7
 74
    0
 49
-6.35
 74
    0
  0
LTYPE
  5
37
330
5
100
AcDbSymbolTableRecord
100
AcDbLinetypeTableRecord
  2
DASHEDTINY
 70
    0
  3
Dashed (.15x) _ _ _ _ _ _ _ _ _ _ _ _ _ _ _ _ _
 72
   65
 73
    2
 40
2.8575
 49
1.905
 74
    0
 49
-0.9525
 74
    0
  0
LTYPE
  5
38
330
5
100
AcDbSymbolTableRecord
100
AcDbLinetypeTableRecord
  2
DASHED2
 70
    0
  3
Dashed (.5x) _ _ _ _ _ _ _ _ _ _ _ _ _ _ _ _ _
 72
   65
 73
    2
 40
9.524999999999999
 49
6.35
 74
    0
 49
-3.175
 74
    0
  0
LTYPE
  5
39
330
5
100
AcDbSymbolTableRecord
100
AcDbLinetypeTableRecord
  2
DASHEDX2
 70
    0
  3
Dashed (2x) ____  ____  ____  ____  ____  ___
 72
   65
 73
    2
 40
38.09999999999999
 49
25.4
 74
    0
 49
-12.7
 74
    0
  0
LTYPE
  5
3A
330
5
100
AcDbSymbolTableRecord
100
AcDbLinetypeTableRecord
  2
DASHDOT
 70
    0
  3
Dash dot __ . __ . __ . __ . __ . __ . __ . __
 72
   65
 73
    4
 40
25.4
 49
12.7
 74
    0
 49
-6.35
 74
    0
 49
0
 74
    0
 49
-6.35
 74
    0
  0
LTYPE
  5
3B
330
5
100
AcDbSymbolTableRecord
100
AcDbLinetypeTableRecord
  2
DASHDOTTINY
 70
    0
  3
Dash dot (.15x) _._._._._._._._._._._._._._._.
 72
   65
 73
    4
 40
3.81
 49
1.905
 74
    0
 49
-0.9525
 74
    0
 49
0
 74
    0
 49
-0.9525
 74
    0
  0
LTYPE
  5
3C
330
5
100
AcDbSymbolTableRecord
100
AcDbLinetypeTableRecord
  2
DASHDOT2
 70
    0
  3
Dash dot (.5x) _._._._._._._._._._._._._._._.
 72
   65
 73
    4
 40
12.7
 49
6.35
 74
    0
 49
-3.175
 74
    0
 49
0
 74
    0
 49
-3.175
 74
    0
  0
LTYPE
  5
3D
330
5
100
AcDbSymbolTableRecord
100
AcDbLinetypeTableRecord
  2
DASHDOTX2
 70
    0
  3
Dash dot (2x) ____  .  ____  .  ____  .  ___
 72
   65
 73
    4
 40
50.8
 49
25.4
 74
    0
 49
-12.7
 74
    0
 49
0
 74
    0
 49
-12.7
 74
    0
  0
LTYPE
  5
3E
330
5
100
AcDbSymbolTableRecord
100
AcDbLinetypeTableRecord
  2
DIVIDE
 70
    0
  3
Divide ____ . . ____ . . ____ . . ____ . . ____
 72
   65
 73
    6
 40
31.75
 49
12.7
 74
    0
 49
-6.35
 74
    0
 49
0
 74
    0
 49
-6.35
 74
    0
 49
0
 74
    0
 49
-6.35
 74
    0
  0
LTYPE
  5
3F
330
5
100
AcDbSymbolTableRecord
100
AcDbLinetypeTableRecord
  2
DIVIDETINY
 70
    0
  3
Divide (.15x) __..__..__..__..__..__..__..__.._
 72
   65
 73
    6
 40
4.7625
 49
1.905
 74
    0
 49
-0.9525
 74
    0
 49
0
 74
    0
 49
-0.9525
 74
    0
 49
0
 74
    0
 49
-0.9525
 74
    0
  0
LTYPE
  5
40
330
5
100
AcDbSymbolTableRecord
100
AcDbLinetypeTableRecord
  2
DIVIDE2
 70
    0
  3
Divide (.5x) __..__..__..__..__..__..__..__.._
 72
   65
 73
    6
 40
15.875
 49
6.35
 74
    0
 49
-3.175
 74
    0
 49
0
 74
    0
 49
-3.175
 74
    0
 49
0
 74
    0
 49
-3.175
 74
    0
  0
LTYPE
  5
41
330
5
100
AcDbSymbolTableRecord
100
AcDbLinetypeTableRecord
  2
DIVIDEX2
 70
    0
  3
Divide (2x) ________  .  .  ________  .  .  _
 72
   65
 73
    6
 40
63.5
 49
25.4
 74
    0
 49
-12.7
 74
    0
 49
0
 74
    0
 49
-12.7
 74
    0
 49
0
 74
    0
 49
-12.7
 74
    0
  0
LTYPE
  5
42
330
5
100
AcDbSymbolTableRecord
100
AcDbLinetypeTableRecord
  2
BORDER
 70
    0
  3
Border __ __ . __ __ . __ __ . __ __ . __ __ .
 72
   65
 73
    6
 40
44.45
 49
12.7
 74
    0
 49
-6.35
 74
    0
 49
12.7
 74
    0
 49
-6.35
 74
    0
 49
0
 74
    0
 49
-6.35
 74
    0
  0
LTYPE
  5
43
330
5
100
AcDbSymbolTableRecord
100
AcDbLinetypeTableRecord
  2
BORDERTINY
 70
    0
  3
Border (.15x) __.__.__.__.__.__.__.__.__.__.__.
 72
   65
 73
    6
 40
6.6675
 49
1.905
 74
    0
 49
-0.9525
 74
    0
 49
1.905
 74
    0
 49
-0.9525
 74
    0
 49
0
 74
    0
 49
-0.9525
 74
    0
  0
LTYPE
  5
44
330
5
100
AcDbSymbolTableRecord
100
AcDbLinetypeTableRecord
  2
BORDER2
 70
    0
  3
Border (.5x) __.__.__.__.__.__.__.__.__.__.__.
 72
   65
 73
    6
 40
22.225
 49
6.35
 74
    0
 49
-3.175
 74
    0
 49
6.35
 74
    0
 49
-3.175
 74
    0
 49
0
 74
    0
 49
-3.175
 74
    0
  0
LTYPE
  5
45
330
5
100
AcDbSymbolTableRecord
100
AcDbLinetypeTableRecord
  2
BORDERX2
 70
    0
  3
Border (2x) ____  ____  .  ____  ____  .  ___
 72
   65
 73
    6
 40
88.89999999999999
 49
25.4
 74
    0
 49
-12.7
 74
    0
 49
25.4
 74
    0
 49
-12.7
 74
    0
 49
0
 74
    0
 49
-12.7
 74
    0
  0
LTYPE
  5
46
330
5
100
AcDbSymbolTableRecord
100
AcDbLinetypeTableRecord
  2
CENTER
 70
    0
  3
Center ____ _ ____ _ ____ _ ____ _ ____ _ ____
 72
   65
 73
    4
 40
50.8
 49
31.75
 74
    0
 49
-6.35
 74
    0
 49
6.35
 74
    0
 49
-6.35
 74
    0
  0
LTYPE
  5
47
330
5
100
AcDbSymbolTableRecord
100
AcDbLinetypeTableRecord
  2
CENTERTINY
 70
    0
  3
Center (.15x) ___ _ ___ _ ___ _ ___ _ ___ _ ___
 72
   65
 73
    4
 40
7.619999999999999
 49
4.7625
 74
    0
 49
-0.9525
 74
    0
 49
0.9525
 74
    0
 49
-0.9525
 74
    0
  0
LTYPE
  5
48
330
5
100
AcDbSymbolTableRecord
100
AcDbLinetypeTableRecord
  2
CENTER2
 70
    0
  3
Center (.5x) ___ _ ___ _ ___ _ ___ _ ___ _ ___
 72
   65
 73
    4
 40
28.575
 49
19.05
 74
    0
 49
-3.175
 74
    0
 49
3.175
 74
    0
 49
-3.175
 74
    0
  0
LTYPE
  5
49
330
5
100
AcDbSymbolTableRecord
100
AcDbLinetypeTableRecord
  2
CENTERX2
 70
    0
  3
Center (2x) ________  __  ________  __  _____
 72
   65
 73
    4
 40
101.6
 49
63.5
 74
    0
 49
-12.7
 74
    0
 49
12.7
 74
    0
 49
-12.7
 74
    0
  0
ENDTAB
  0
TABLE
  2
LAYER
  5
2
330
0
100
AcDbSymbolTable
 70
    1
  0
LAYER
  5
10
330
2
100
AcDbSymbolTableRecord
100
AcDbLayerTableRecord
  2
0
 70
    0
 62
    7
  6
CONTINUOUS
370
   -3
390
F
  0
LAYER
  5
4A
330
2
100
AcDbSymbolTableRecord
100
AcDbLayerTableRecord
  2
120mm_fan-Mounting_hole_pattern
 70
    0
 62
    7
  6
CONTINUOUS
370
   -3
390
F
  0
LAYER
  5
4B
330
2
100
AcDbSymbolTableRecord
100
AcDbLayerTableRecord
  2
filters
 70
    0
 62
    7
  6
CONTINUOUS
370
    0
390
F
  0
LAYER
  5
4C
330
2
100
AcDbSymbolTableRecord
100
AcDbLayerTableRecord
  2
paaltjes
 70
    0
 62
    7
  6
CONTINUOUS
370
    0
390
F
  0
LAYER
  5
4D
330
2
100
AcDbSymbolTableRecord
100
AcDbLayerTableRecord
  2
vierkant
 70
    0
 62
    7
  6
CONTINUOUS
370
    0
390
F
  0
ENDTAB
  0
TABLE
  2
STYLE
  5
3
330
0
100
AcDbSymbolTable
 70
    3
  0
STYLE
  5
4E
330
2
100
AcDbSymbolTableRecord
100
AcDbTextStyleTableRecord
  2
Standard
 70
    0
 40
0
 41
1
 50
0
 71
    0
 42
1
  3
txt
  4

  0
ENDTAB
  0
TABLE
  2
VIEW
  5
6
330
0
100
AcDbSymbolTable
 70
    0
  0
ENDTAB
  0
TABLE
  2
UCS
  5
7
330
0
100
AcDbSymbolTable
 70
    0
  0
ENDTAB
  0
TABLE
  2
APPID
  5
9
330
0
100
AcDbSymbolTable
 70
    1
  0
APPID
  5
12
330
9
100
AcDbSymbolTableRecord
100
AcDbRegAppTableRecord
  2
ACAD
 70
    0
  0
APPID
  5
4F
330
9
100
AcDbSymbolTableRecord
100
AcDbRegAppTableRecord
  2
LibreCad
 70
    0
  0
ENDTAB
  0
TABLE
  2
DIMSTYLE
  5
A
330
0
100
AcDbSymbolTable
 70
    1
100
AcDbDimStyleTable
 71
    1
  0
DIMSTYLE
105
50
330
A
100
AcDbSymbolTableRecord
100
AcDbDimStyleTableRecord
  2
Standard
 70
    0
 40
1
 41
2.5
 42
0.625
 43
0.38
 44
1.25
 45
0
 46
0
 47
0
 48
0
 49
1
140
2.5
141
0.09
142
0
143
25.4
144
1
145
0
146
1
147
0.625
148
0
 71
    0
 72
    0
 73
    0
 74
    1
 75
    0
 76
    0
 77
    0
 78
    8
 79
    0
170
    0
171
    2
172
    0
173
    0
174
    0
175
    0
176
    0
177
    0
178
    0
179
    0
271
    2
272
    4
273
    2
274
    2
275
    0
276
    0
277
    2
278
   44
279
    0
280
    0
281
    0
282
    0
283
    1
284
    0
285
    0
286
    0
288
    0
289
    3
340
standard
341

371
   -2
372
   -2
  0
ENDTAB
  0
TABLE
  2
BLOCK_RECORD
  5
1
330
0
100
AcDbSymbolTable
 70
    2
  0
BLOCK_RECORD
  5
1F
330
1
100
AcDbSymbolTableRecord
100
AcDbBlockTableRecord
  2
*Model_Space
 70
    0
280
    1
281
    0
  0
BLOCK_RECORD
  5
1E
330
1
100
AcDbSymbolTableRecord
100
AcDbBlockTableRecord
  2
*Paper_Space
 70
    0
280
    1
281
    0
  0
ENDTAB
  0
ENDSEC
  0
SECTION
  2
BLOCKS
  0
BLOCK
  5
20
330
1F
100
AcDbEntity
  8
0
100
AcDbBlockBegin
  2
*Model_Space
 70
    0
 10
0
 20
0
 30
0
  3
*Model_Space
  1

  0
ENDBLK
  5
21
330
1F
100
AcDbEntity
  8
0
100
AcDbBlockEnd
  0
BLOCK
  5
1C
330
1B
100
AcDbEntity
  8
0
100
AcDbBlockBegin
  2
*Paper_Space
 70
    0
 10
0
 20
0
 30
0
  3
*Paper_Space
  1

  0
ENDBLK
  5
1D
330
1F
100
AcDbEntity
  8
0
100
AcDbBlockEnd
  0
ENDSEC
  0
SECTION
  2
ENTITIES
  0
LWPOLYLINE
  5
51
100
AcDbEntity
  8
120mm_fan-Mounting_hole_pattern
  6
ByLayer
 62
    7
370
   -1
100
AcDbPolyline
 90
    2
 70
    0
 43
0
 10
291.353770054598
 20
289.3486099556167
 10
291.353770054598
 20
399.3591933874195
  0
LWPOLYLINE
  5
52
100
AcDbEntity
  8
120mm_fan-Mounting_hole_pattern
  6
ByLayer
 62
    7
370
   -1
100
AcDbPolyline
 90
    2
 70
    0
 43
0
 10
406.3590624815768
 20
284.3539009604407
 10
296.3484786970403
 20
284.3539009604407
  0
LWPOLYLINE
  5
53
100
AcDbEntity
  8
120mm_fan-Mounting_hole_pattern
  6
ByLayer
 62
    7
370
   -1
100
AcDbPolyline
 90
    2
 70
    0
 43
0
 10
298.888161589694
 20
396.8618360679619
 10
298.888161589694
 20
394.9147514116952
  0
LWPOLYLINE
  5
54
100
AcDbEntity
  8
120mm_fan-Mounting_hole_pattern
  6
ByLayer
 62
    7
370
   -1
100
AcDbPolyline
 90
    2
 70
    0
 43
0
 10
298.888161589694
 20
394.1528441805834
 10
298.888161589694
 20
393.3909394186074
  0
LWPOLYLINE
  5
55
100
AcDbEntity
  8
120mm_fan-Mounting_hole_pattern
  6
ByLayer
 62
    7
370
   -1
100
AcDbPolyline
 90
    2
 70
    0
 43
0
 10
411.3537661857474
 20
399.3591933874195
 10
411.3537661857474
 20
289.3486124247525
  0
LWPOLYLINE
  5
56
100
AcDbEntity
  8
120mm_fan-Mounting_hole_pattern
  6
ByLayer
 62
    7
370
   -1
100
AcDbPolyline
 90
    2
 70
    0
 43
0
 10
296.3484815189098
 20
404.3539048517312
 10
406.359054368702
 20
404.3539048517312
  0
LWPOLYLINE
  5
57
100
AcDbEntity
  8
120mm_fan-Mounting_hole_pattern
  6
ByLayer
 62
    7
370
   -1
100
AcDbPolyline
 90
  116
 70
    1
 43
0
 10
409.3220254448167
 20
344.332737650352
 10
409.2373693601527
 20
347.5073408252521
 10
408.9834011061607
 20
350.6396159578201
 10
408.5601206828408
 20
353.7295630480561
 10
407.9675280901928
 20
356.8195104910258
 10
407.2056233282167
 20
359.8671295389298
 10
406.3167344392448
 20
362.8724208972354
 10
405.2162053386128
 20
365.8353831550081
 10
403.9886921109847
 20
368.7136914445188
 10
402.591866361295
 20
371.5073411802297
 10
401.025728795011
 20
374.2586639318097
 10
399.3326078071984
 20
376.8830025563938
 10
397.5125016341888
 20
379.4650131386458
 10
395.5654116869167
 20
381.8777115515697
 10
393.4490092175831
 20
384.2480819221618
 10
391.2479510163191
 20
386.4491401234258
 10
388.8775809984608
 20
388.5655422400258
 10
386.4648818800694
 20
390.5126321872978
 10
383.88287059235
 20
392.3327383603074
 10
381.258533025967
 20
394.0258600535875
 10
378.507210274387
 20
395.591994798002
 10
375.7135594804751
 20
396.988820194958
 10
372.8352526018991
 20
398.2163334225859
 10
369.8722921077949
 20
399.3168653450874
 10
366.8669982803534
 20
400.2480822763914
 10
363.8193792324494
 20
400.9676589960354
 10
360.7294349640829
 20
401.5602540578192
 10
357.6394850519774
 20
401.9835320120034
 10
354.5072099194094
 20
402.2375002659954
 10
351.3326067445093
 20
402.3644843929914
 10
348.2003340810772
 20
402.2375002659954
 10
345.0680564793734
 20
401.9835320120034
 10
341.9781093891374
 20
401.5602540578192
 10
338.8881647680372
 20
400.9676589960354
 10
335.8405404291279
 20
400.2480822763914
 10
332.8352518926917
 20
399.3168653450874
 10
329.8722864603159
 20
398.2163334225859
 10
326.9939795817399
 20
396.988820194958
 10
324.2003284350942
 20
395.591994798002
 10
321.4490085053837
 20
394.0258600535875
 10
318.8246723499355
 20
392.3327383603074
 10
316.2426592985477
 20
390.5126321872978
 10
313.8299633547595
 20
388.5655422400258
 10
311.4595876931622
 20
386.4491401234258
 10
309.2585347829035
 20
384.2480819221618
 10
307.1421326663035
 20
381.8777115515697
 10
305.1950374280262
 20
379.4650131386458
 10
303.3749316077502
 20
376.8830025563938
 10
301.681812383606
 20
374.2586639318097
 10
300.1156776391915
 20
371.5073411802297
 10
298.7188522422355
 20
368.7136914445188
 10
297.491336192738
 20
365.8353831550081
 10
296.390807092106
 20
362.8724208972354
 10
295.5019206722698
 20
359.8671295389298
 10
294.740013441158
 20
356.8195104910258
 10
294.1474233176458
 20
353.7295630480561
 10
293.7241428943258
 20
350.6396159578201
 10
293.4701693493285
 20
347.5073408252521
 10
293.3855185556698
 20
344.332737650352
 10
293.4701693493285
 20
341.200462517784
 10
293.7241428943258
 20
338.068187385216
 10
294.1474233176458
 20
334.9782399422464
 10
294.740013441158
 20
331.8882928520104
 10
295.5019206722698
 20
328.8406738041064
 10
296.390807092106
 20
325.8353835040018
 10
297.491336192738
 20
322.872419129827
 10
298.7188522422355
 20
319.9941129567184
 10
300.1156776391915
 20
317.2004621628064
 10
301.681812383606
 20
314.4491394112264
 10
303.3749316077502
 20
311.8248007866424
 10
305.1950374280262
 20
309.2427902043904
 10
307.1421326663035
 20
306.7877633964007
 10
309.2585347829035
 20
304.4597210681407
 10
311.4595876931622
 20
302.2586656887462
 10
313.8299633547595
 20
300.1422635721462
 10
316.2426592985477
 20
298.1951736248742
 10
318.8246723499355
 20
296.3327369403967
 10
321.4490085053837
 20
294.6396152471167
 10
324.2003284350942
 20
293.1158029012952
 10
326.9939795817399
 20
291.7189803262087
 10
329.8722864603159
 20
290.4914670985807
 10
332.8352518926917
 20
289.3909404670845
 10
335.8405404291279
 20
288.4597210666447
 10
338.8881647680372
 20
287.6978163046687
 10
341.9781093891374
 20
287.1052208901512
 10
345.0680564793734
 20
286.6819432887007
 10
348.2003340810772
 20
286.4279750347087
 10
351.3326067445093
 20
286.3433189500447
 10
354.5072099194094
 20
286.4279750347087
 10
357.6394850519774
 20
286.6819432887007
 10
360.7294349640829
 20
287.1052208901512
 10
363.8193792324494
 20
287.6978163046687
 10
366.8669982803534
 20
288.4597210666447
 10
369.8722921077949
 20
289.3909404670845
 10
372.8352526018991
 20
290.4914670985807
 10
375.7135594804751
 20
291.7189803262087
 10
378.507210274387
 20
293.1158029012952
 10
381.258533025967
 20
294.6396152471167
 10
383.88287059235
 20
296.3327369403967
 10
386.4648818800694
 20
298.1951736248742
 10
388.8775809984608
 20
300.1422635721462
 10
391.2479510163191
 20
302.2586656887462
 10
393.4490092175831
 20
304.4597210681407
 10
395.5654116869167
 20
306.7877633964007
 10
397.5125016341888
 20
309.2427902043904
 10
399.3326078071984
 20
311.8248007866424
 10
401.025728795011
 20
314.4491394112264
 10
402.591866361295
 20
317.2004621628064
 10
403.9886921109847
 20
319.9941129567184
 10
405.2162053386128
 20
322.872419129827
 10
406.3167344392448
 20
325.8353835040018
 10
407.2056233282167
 20
328.8406738041064
 10
407.9675280901928
 20
331.8882928520104
 10
408.5601206828408
 20
334.9782399422464
 10
408.9834011061607
 20
338.068187385216
 10
409.2373693601527
 20
341.200462517784
  0
LWPOLYLINE
  5
58
100
AcDbEntity
  8
120mm_fan-Mounting_hole_pattern
  6
ByLayer
 62
    7
370
   -1
100
AcDbPolyline
 90
   10
 70
    0
 43
0
 10
291.353770054598
 20
289.3486099556167
 10
291.438426139262
 20
288.5020491089767
 10
291.650066350922
 20
287.6554882623367
 10
292.03101873191
 20
286.8512554580287
 10
292.538955239894
 20
286.1316787383847
 10
293.173875874874
 20
285.5390861457367
 10
293.851124552186
 20
285.0311496377527
 10
294.655357356494
 20
284.6501972567647
 10
295.501918203134
 20
284.4385570451047
 10
296.3484786970403
 20
284.3539009604407
  0
LWPOLYLINE
  5
59
100
AcDbEntity
  8
120mm_fan-Mounting_hole_pattern
  6
ByLayer
 62
    7
370
   -1
100
AcDbPolyline
 90
   10
 70
    0
 43
0
 10
296.348479049774
 20
404.3539023825954
 10
295.501918203134
 20
404.2692462979314
 10
294.655357356494
 20
404.0576060862714
 10
293.851124552186
 20
403.6766537052835
 10
293.173875874874
 20
403.1687171972994
 10
292.538955239894
 20
402.5761246046515
 10
292.03101873191
 20
401.8565478850074
 10
291.650066350922
 20
401.0523150806994
 10
291.4384264919957
 20
400.2057542340594
 10
291.3537704073317
 20
399.3591937401531
  0
LWPOLYLINE
  5
5A
100
AcDbEntity
  8
120mm_fan-Mounting_hole_pattern
  6
ByLayer
 62
    7
370
   -1
100
AcDbPolyline
 90
   10
 70
    0
 43
0
 10
411.3537714767527
 20
399.3591933874195
 10
411.2691153920888
 20
400.2057542340594
 10
411.0151471380967
 20
401.0523150806994
 10
410.6765227994408
 20
401.8565478850074
 10
410.1685862914568
 20
402.5761246046515
 10
409.5336656564767
 20
403.1687171972994
 10
408.8564169791647
 20
403.6766537052835
 10
408.0521841748567
 20
404.0576060862714
 10
407.2056233282167
 20
404.2692459451977
 10
406.3590628343105
 20
404.3539020298617
  0
LWPOLYLINE
  5
5B
100
AcDbEntity
  8
120mm_fan-Mounting_hole_pattern
  6
ByLayer
 62
    7
370
   -1
100
AcDbPolyline
 90
   10
 70
    0
 43
0
 10
406.3590624815768
 20
284.3539009604407
 10
407.2056233282167
 20
284.4385570451047
 10
408.0521841748567
 20
284.6501972567647
 10
408.8564169791647
 20
285.0311496377527
 10
409.5336656564767
 20
285.5390861457367
 10
410.1685862914568
 20
286.1316787383847
 10
410.6765227994408
 20
286.8512554580287
 10
411.0151471380967
 20
287.6554882623367
 10
411.2691150393551
 20
288.5020491089767
 10
411.3537711240191
 20
289.348609602883
  0
LWPOLYLINE
  5
5C
100
AcDbEntity
  8
120mm_fan-Mounting_hole_pattern
  6
ByLayer
 62
    7
370
   -1
100
AcDbPolyline
 90
   24
 70
    1
 43
0
 10
301.004563706294
 20
396.8618388898315
 10
300.962235663962
 20
397.4121034401475
 10
300.70826740997
 20
397.9200399481314
 10
300.369643071314
 20
398.3433203714515
 10
299.946362647994
 20
398.7242727524394
 10
299.43842614001
 20
398.9359129640994
 10
298.888161589694
 20
398.9782410064315
 10
298.295568997046
 20
398.9359129640994
 10
297.787632489062
 20
398.7242727524394
 10
297.364352065742
 20
398.3433203714515
 10
297.025727727086
 20
397.9200399481314
 10
296.771759473094
 20
397.4121034401475
 10
296.729431430762
 20
396.8618388898315
 10
296.771759473094
 20
396.2692462971834
 10
297.025727727086
 20
395.7613097891995
 10
297.364352065742
 20
395.3380293658794
 10
297.787632489062
 20
394.9994050272234
 10
298.295568997046
 20
394.7877648155634
 10
298.888161589694
 20
394.7031087308994
 10
299.43842614001
 20
394.7877648155634
 10
299.946362647994
 20
394.9994050272234
 10
300.369643071314
 20
395.3380293658794
 10
300.70826740997
 20
395.7613097891995
 10
300.962235663962
 20
396.2692462971834
  0
LWPOLYLINE
  5
5D
100
AcDbEntity
  8
120mm_fan-Mounting_hole_pattern
  6
ByLayer
 62
    7
370
   -1
100
AcDbPolyline
 90
   24
 70
    1
 43
0
 10
405.9781101005888
 20
396.8618388898315
 10
405.9357820582567
 20
397.4121034401475
 10
405.6818138042647
 20
397.9200399481314
 10
405.3431894656088
 20
398.3433203714515
 10
404.9199090422887
 20
398.7242727524394
 10
404.4119725343048
 20
398.9359129640994
 10
403.8193799416567
 20
398.9782410064315
 10
403.2691153913407
 20
398.9359129640994
 10
402.7611788833568
 20
398.7242727524394
 10
402.3378984600367
 20
398.3433203714515
 10
401.9569460790487
 20
397.9200399481314
 10
401.7453058673888
 20
397.4121034401475
 10
401.7029778250567
 20
396.8618388898315
 10
401.7453058673888
 20
396.2692462971834
 10
401.9569460790487
 20
395.7613097891995
 10
402.3378984600367
 20
395.3380293658794
 10
402.7611788833568
 20
394.9994050272234
 10
403.2691153913407
 20
394.7877648155634
 10
403.8193799416567
 20
394.7031087308994
 10
404.4119725343048
 20
394.7877648155634
 10
404.9199090422887
 20
394.9994050272234
 10
405.3431894656088
 20
395.3380293658794
 10
405.6818138042647
 20
395.7613097891995
 10
405.9357820582567
 20
396.2692462971834
  0
LWPOLYLINE
  5
5E
100
AcDbEntity
  8
120mm_fan-Mounting_hole_pattern
  6
ByLayer
 62
    7
370
   -1
100
AcDbPolyline
 90
   24
 70
    1
 43
0
 10
301.004563706294
 20
291.8459644532047
 10
300.962235663962
 20
292.3962290035207
 10
300.70826740997
 20
292.9464935538367
 10
300.369643071314
 20
293.3697739771567
 10
299.946362647994
 20
293.7083983158127
 10
299.43842614001
 20
293.9200385274727
 10
298.888161589694
 20
294.0046946121367
 10
298.295568997046
 20
293.9200385274727
 10
297.787632489062
 20
293.7083983158127
 10
297.364352065742
 20
293.3697739771567
 10
297.025727727086
 20
292.9464935538367
 10
296.771759473094
 20
292.3962290035207
 10
296.729431430762
 20
291.8459644532047
 10
296.771759473094
 20
291.2956999028887
 10
297.025727727086
 20
290.7877633949047
 10
297.364352065742
 20
290.3221549292527
 10
297.787632489062
 20
289.9835305905967
 10
298.295568997046
 20
289.7718903789367
 10
298.888161589694
 20
289.6872342942727
 10
299.43842614001
 20
289.7718903789367
 10
299.946362647994
 20
289.9835305905967
 10
300.369643071314
 20
290.3221549292527
 10
300.70826740997
 20
290.7877633949047
 10
300.962235663962
 20
291.2956999028887
  0
LWPOLYLINE
  5
5F
100
AcDbEntity
  8
120mm_fan-Mounting_hole_pattern
  6
ByLayer
 62
    7
370
   -1
100
AcDbPolyline
 90
   24
 70
    1
 43
0
 10
405.9781101005888
 20
291.8459644532047
 10
405.9357820582567
 20
292.3962290035207
 10
405.6818138042647
 20
292.9464935538367
 10
405.3431894656088
 20
293.3697739771567
 10
404.9199090422887
 20
293.7083983158127
 10
404.4119725343048
 20
293.9200385274727
 10
403.8193799416567
 20
294.0046946121367
 10
403.2691153913407
 20
293.9200385274727
 10
402.7611788833568
 20
293.7083983158127
 10
402.3378984600367
 20
293.3697739771567
 10
401.9569460790487
 20
292.9464935538367
 10
401.7453058673888
 20
292.3962290035207
 10
401.7029778250567
 20
291.8459644532047
 10
401.7453058673888
 20
291.2956999028887
 10
401.9569460790487
 20
290.7877633949047
 10
402.3378984600367
 20
290.3221549292527
 10
402.7611788833568
 20
289.9835305905967
 10
403.2691153913407
 20
289.7718903789367
 10
403.8193799416567
 20
289.6872342942727
 10
404.4119725343048
 20
289.7718903789367
 10
404.9199090422887
 20
289.9835305905967
 10
405.3431894656088
 20
290.3221549292527
 10
405.6818138042647
 20
290.7877633949047
 10
405.9357820582567
 20
291.2956999028887
  0
LWPOLYLINE
  5
60
100
AcDbEntity
  8
120mm_fan-Mounting_hole_pattern
  6
ByLayer
 62
    7
370
   -1
100
AcDbPolyline
 90
    2
 70
    0
 43
0
 10
163.2945884610519
 20
288.1859517329595
 10
163.2945884610519
 20
398.1965351647623
  0
LWPOLYLINE
  5
61
100
AcDbEntity
  8
120mm_fan-Mounting_hole_pattern
  6
ByLayer
 62
    7
370
   -1
100
AcDbPolyline
 90
    2
 70
    0
 43
0
 10
278.2998808880307
 20
283.1912427377835
 10
168.2892971034942
 20
283.1912427377835
  0
LWPOLYLINE
  5
62
100
AcDbEntity
  8
120mm_fan-Mounting_hole_pattern
  6
ByLayer
 62
    7
370
   -1
100
AcDbPolyline
 90
    2
 70
    0
 43
0
 10
170.8289799961479
 20
395.6991778453047
 10
170.8289799961479
 20
393.752093189038
  0
LWPOLYLINE
  5
63
100
AcDbEntity
  8
120mm_fan-Mounting_hole_pattern
  6
ByLayer
 62
    7
370
   -1
100
AcDbPolyline
 90
    2
 70
    0
 43
0
 10
170.8289799961479
 20
392.9901859579261
 10
170.8289799961479
 20
392.2282811959502
  0
LWPOLYLINE
  5
64
100
AcDbEntity
  8
120mm_fan-Mounting_hole_pattern
  6
ByLayer
 62
    7
370
   -1
100
AcDbPolyline
 90
    2
 70
    0
 43
0
 10
283.2945845922013
 20
398.1965351647623
 10
283.2945845922013
 20
288.1859542020953
  0
LWPOLYLINE
  5
65
100
AcDbEntity
  8
120mm_fan-Mounting_hole_pattern
  6
ByLayer
 62
    7
370
   -1
100
AcDbPolyline
 90
    2
 70
    0
 43
0
 10
168.2892999253637
 20
403.191246629074
 10
278.2998727751558
 20
403.191246629074
  0
LWPOLYLINE
  5
66
100
AcDbEntity
  8
120mm_fan-Mounting_hole_pattern
  6
ByLayer
 62
    7
370
   -1
100
AcDbPolyline
 90
  116
 70
    1
 43
0
 10
281.2628438512705
 20
343.1700794276948
 10
281.1781877666065
 20
346.3446826025948
 10
280.9242195126146
 20
349.4769577351629
 10
280.5009390892947
 20
352.5669048253989
 10
279.9083464966466
 20
355.6568522683686
 10
279.1464417346705
 20
358.7044713162726
 10
278.2575528456986
 20
361.7097626745781
 10
277.1570237450666
 20
364.6727249323509
 10
275.9295105174385
 20
367.5510332218616
 10
274.5326847677488
 20
370.3446829575724
 10
272.9665472014648
 20
373.0960057091525
 10
271.2734262136523
 20
375.7203443337366
 10
269.4533200406427
 20
378.3023549159886
 10
267.5062300933706
 20
380.7150533289125
 10
265.389827624037
 20
383.0854236995046
 10
263.188769422773
 20
385.2864819007686
 10
260.8183994049147
 20
387.4028840173686
 10
258.4057002865233
 20
389.3499739646406
 10
255.8236889988039
 20
391.1700801376502
 10
253.1993514324209
 20
392.8632018309303
 10
250.4480286808408
 20
394.4293365753448
 10
247.654377886929
 20
395.8261619723008
 10
244.7760710083529
 20
397.0536751999286
 10
241.8131105142488
 20
398.1542071224302
 10
238.8078166868073
 20
399.0854240537342
 10
235.7601976389033
 20
399.8050007733782
 10
232.6702533705368
 20
400.397595835162
 10
229.5803034584312
 20
400.8208737893462
 10
226.4480283258632
 20
401.0748420433382
 10
223.2734251509632
 20
401.2018261703342
 10
220.1411524875311
 20
401.0748420433382
 10
217.0088748858273
 20
400.8208737893462
 10
213.9189277955913
 20
400.397595835162
 10
210.8289831744911
 20
399.8050007733782
 10
207.7813588355818
 20
399.0854240537342
 10
204.7760702991456
 20
398.1542071224302
 10
201.8131048667697
 20
397.0536751999286
 10
198.9347979881938
 20
395.8261619723008
 10
196.1411468415481
 20
394.4293365753448
 10
193.3898269118376
 20
392.8632018309303
 10
190.7654907563894
 20
391.1700801376502
 10
188.1834777050016
 20
389.3499739646406
 10
185.7707817612134
 20
387.4028840173686
 10
183.400406099616
 20
385.2864819007686
 10
181.1993531893574
 20
383.0854236995046
 10
179.0829510727574
 20
380.7150533289125
 10
177.1358558344801
 20
378.3023549159886
 10
175.3157500142041
 20
375.7203443337366
 10
173.6226307900598
 20
373.0960057091525
 10
172.0564960456454
 20
370.3446829575724
 10
170.6596706486894
 20
367.5510332218616
 10
169.4321545991919
 20
364.6727249323509
 10
168.3316254985599
 20
361.7097626745781
 10
167.4427390787237
 20
358.7044713162726
 10
166.6808318476119
 20
355.6568522683686
 10
166.0882417240997
 20
352.5669048253989
 10
165.6649613007797
 20
349.4769577351629
 10
165.4109877557824
 20
346.3446826025948
 10
165.3263369621237
 20
343.1700794276948
 10
165.4109877557824
 20
340.0378042951268
 10
165.6649613007797
 20
336.9055291625588
 10
166.0882417240997
 20
333.8155817195891
 10
166.6808318476119
 20
330.7256346293532
 10
167.4427390787237
 20
327.6780155814492
 10
168.3316254985599
 20
324.6727252813446
 10
169.4321545991919
 20
321.7097609071698
 10
170.6596706486894
 20
318.8314547340612
 10
172.0564960456454
 20
316.0378039401492
 10
173.6226307900598
 20
313.2864811885692
 10
175.3157500142041
 20
310.6621425639852
 10
177.1358558344801
 20
308.0801319817332
 10
179.0829510727574
 20
305.6251051737435
 10
181.1993531893574
 20
303.2970628454835
 10
183.400406099616
 20
301.096007466089
 10
185.7707817612134
 20
298.979605349489
 10
188.1834777050016
 20
297.032515402217
 10
190.7654907563894
 20
295.1700787177395
 10
193.3898269118376
 20
293.4769570244595
 10
196.1411468415481
 20
291.953144678638
 10
198.9347979881938
 20
290.5563221035515
 10
201.8131048667697
 20
289.3288088759235
 10
204.7760702991456
 20
288.2282822444272
 10
207.7813588355818
 20
287.2970628439875
 10
210.8289831744911
 20
286.5351580820115
 10
213.9189277955913
 20
285.942562667494
 10
217.0088748858273
 20
285.5192850660435
 10
220.1411524875311
 20
285.2653168120515
 10
223.2734251509632
 20
285.1806607273875
 10
226.4480283258632
 20
285.2653168120515
 10
229.5803034584312
 20
285.5192850660435
 10
232.6702533705368
 20
285.942562667494
 10
235.7601976389033
 20
286.5351580820115
 10
238.8078166868073
 20
287.2970628439875
 10
241.8131105142488
 20
288.2282822444272
 10
244.7760710083529
 20
289.3288088759235
 10
247.654377886929
 20
290.5563221035515
 10
250.4480286808408
 20
291.953144678638
 10
253.1993514324209
 20
293.4769570244595
 10
255.8236889988039
 20
295.1700787177395
 10
258.4057002865233
 20
297.032515402217
 10
260.8183994049147
 20
298.979605349489
 10
263.188769422773
 20
301.096007466089
 10
265.389827624037
 20
303.2970628454835
 10
267.5062300933706
 20
305.6251051737435
 10
269.4533200406427
 20
308.0801319817332
 10
271.2734262136523
 20
310.6621425639852
 10
272.9665472014648
 20
313.2864811885692
 10
274.5326847677488
 20
316.0378039401492
 10
275.9295105174385
 20
318.8314547340612
 10
277.1570237450666
 20
321.7097609071698
 10
278.2575528456986
 20
324.6727252813446
 10
279.1464417346705
 20
327.6780155814492
 10
279.9083464966466
 20
330.7256346293532
 10
280.5009390892947
 20
333.8155817195891
 10
280.9242195126146
 20
336.9055291625588
 10
281.1781877666065
 20
340.0378042951268
  0
LWPOLYLINE
  5
67
100
AcDbEntity
  8
120mm_fan-Mounting_hole_pattern
  6
ByLayer
 62
    7
370
   -1
100
AcDbPolyline
 90
   10
 70
    0
 43
0
 10
163.2945884610519
 20
288.1859517329595
 10
163.3792445457159
 20
287.3393908863194
 10
163.5908847573758
 20
286.4928300396795
 10
163.9718371383639
 20
285.6885972353714
 10
164.4797736463479
 20
284.9690205157275
 10
165.1146942813279
 20
284.3764279230795
 10
165.7919429586399
 20
283.8684914150955
 10
166.5961757629479
 20
283.4875390341075
 10
167.4427366095879
 20
283.2758988224475
 10
168.2892971034942
 20
283.1912427377835
  0
LWPOLYLINE
  5
68
100
AcDbEntity
  8
120mm_fan-Mounting_hole_pattern
  6
ByLayer
 62
    7
370
   -1
100
AcDbPolyline
 90
   10
 70
    0
 43
0
 10
168.2892974562279
 20
403.1912441599382
 10
167.4427366095879
 20
403.1065880752741
 10
166.5961757629479
 20
402.8949478636142
 10
165.7919429586399
 20
402.5139954826263
 10
165.1146942813279
 20
402.0060589746421
 10
164.4797736463479
 20
401.4134663819943
 10
163.9718371383639
 20
400.6938896623502
 10
163.5908847573758
 20
399.8896568580421
 10
163.3792448984496
 20
399.0430960114022
 10
163.2945888137856
 20
398.1965355174959
  0
LWPOLYLINE
  5
69
100
AcDbEntity
  8
120mm_fan-Mounting_hole_pattern
  6
ByLayer
 62
    7
370
   -1
100
AcDbPolyline
 90
   10
 70
    0
 43
0
 10
283.2945898832065
 20
398.1965351647623
 10
283.2099337985426
 20
399.0430960114022
 10
282.9559655445506
 20
399.8896568580421
 10
282.6173412058947
 20
400.6938896623502
 10
282.1094046979106
 20
401.4134663819943
 10
281.4744840629306
 20
402.0060589746421
 10
280.7972353856185
 20
402.5139954826263
 10
279.9930025813105
 20
402.8949478636142
 10
279.1464417346705
 20
403.1065877225405
 10
278.2998812407644
 20
403.1912438072044
  0
LWPOLYLINE
  5
6A
100
AcDbEntity
  8
120mm_fan-Mounting_hole_pattern
  6
ByLayer
 62
    7
370
   -1
100
AcDbPolyline
 90
   10
 70
    0
 43
0
 10
278.2998808880307
 20
283.1912427377835
 10
279.1464417346705
 20
283.2758988224475
 10
279.9930025813105
 20
283.4875390341075
 10
280.7972353856185
 20
283.8684914150955
 10
281.4744840629306
 20
284.3764279230795
 10
282.1094046979106
 20
284.9690205157275
 10
282.6173412058947
 20
285.6885972353714
 10
282.9559655445506
 20
286.4928300396795
 10
283.2099334458089
 20
287.3393908863194
 10
283.2945895304729
 20
288.1859513802258
  0
LWPOLYLINE
  5
6B
100
AcDbEntity
  8
120mm_fan-Mounting_hole_pattern
  6
ByLayer
 62
    7
370
   -1
100
AcDbPolyline
 90
   24
 70
    1
 43
0
 10
172.9453821127479
 20
395.6991806671743
 10
172.9030540704159
 20
396.2494452174903
 10
172.6490858164239
 20
396.7573817254741
 10
172.3104614777679
 20
397.1806621487943
 10
171.8871810544479
 20
397.5616145297822
 10
171.3792445464639
 20
397.7732547414421
 10
170.8289799961479
 20
397.8155827837743
 10
170.2363874034999
 20
397.7732547414421
 10
169.7284508955159
 20
397.5616145297822
 10
169.3051704721959
 20
397.1806621487943
 10
168.9665461335399
 20
396.7573817254741
 10
168.7125778795479
 20
396.2494452174903
 10
168.6702498372159
 20
395.6991806671743
 10
168.7125778795479
 20
395.1065880745261
 10
168.9665461335399
 20
394.5986515665423
 10
169.3051704721959
 20
394.1753711432222
 10
169.7284508955159
 20
393.8367468045662
 10
170.2363874034999
 20
393.6251065929061
 10
170.8289799961479
 20
393.5404505082421
 10
171.3792445464639
 20
393.6251065929061
 10
171.8871810544479
 20
393.8367468045662
 10
172.3104614777679
 20
394.1753711432222
 10
172.6490858164239
 20
394.5986515665423
 10
172.9030540704159
 20
395.1065880745261
  0
LWPOLYLINE
  5
6C
100
AcDbEntity
  8
120mm_fan-Mounting_hole_pattern
  6
ByLayer
 62
    7
370
   -1
100
AcDbPolyline
 90
   24
 70
    1
 43
0
 10
277.9189285070427
 20
395.6991806671743
 10
277.8766004647105
 20
396.2494452174903
 10
277.6226322107186
 20
396.7573817254741
 10
277.2840078720627
 20
397.1806621487943
 10
276.8607274487425
 20
397.5616145297822
 10
276.3527909407587
 20
397.7732547414421
 10
275.7601983481105
 20
397.8155827837743
 10
275.2099337977945
 20
397.7732547414421
 10
274.7019972898107
 20
397.5616145297822
 10
274.2787168664905
 20
397.1806621487943
 10
273.8977644855025
 20
396.7573817254741
 10
273.6861242738427
 20
396.2494452174903
 10
273.6437962315105
 20
395.6991806671743
 10
273.6861242738427
 20
395.1065880745261
 10
273.8977644855025
 20
394.5986515665423
 10
274.2787168664905
 20
394.1753711432222
 10
274.7019972898107
 20
393.8367468045662
 10
275.2099337977945
 20
393.6251065929061
 10
275.7601983481105
 20
393.5404505082421
 10
276.3527909407587
 20
393.6251065929061
 10
276.8607274487425
 20
393.8367468045662
 10
277.2840078720627
 20
394.1753711432222
 10
277.6226322107186
 20
394.5986515665423
 10
277.8766004647105
 20
395.1065880745261
  0
LWPOLYLINE
  5
6D
100
AcDbEntity
  8
120mm_fan-Mounting_hole_pattern
  6
ByLayer
 62
    7
370
   -1
100
AcDbPolyline
 90
   24
 70
    1
 43
0
 10
172.9453821127479
 20
290.6833062305475
 10
172.9030540704159
 20
291.2335707808635
 10
172.6490858164239
 20
291.7838353311795
 10
172.3104614777679
 20
292.2071157544995
 10
171.8871810544479
 20
292.5457400931555
 10
171.3792445464639
 20
292.7573803048155
 10
170.8289799961479
 20
292.8420363894795
 10
170.2363874034999
 20
292.7573803048155
 10
169.7284508955159
 20
292.5457400931555
 10
169.3051704721959
 20
292.2071157544995
 10
168.9665461335399
 20
291.7838353311795
 10
168.7125778795479
 20
291.2335707808635
 10
168.6702498372159
 20
290.6833062305475
 10
168.7125778795479
 20
290.1330416802315
 10
168.9665461335399
 20
289.6251051722475
 10
169.3051704721959
 20
289.1594967065955
 10
169.7284508955159
 20
288.8208723679394
 10
170.2363874034999
 20
288.6092321562795
 10
170.8289799961479
 20
288.5245760716155
 10
171.3792445464639
 20
288.6092321562795
 10
171.8871810544479
 20
288.8208723679394
 10
172.3104614777679
 20
289.1594967065955
 10
172.6490858164239
 20
289.6251051722475
 10
172.9030540704159
 20
290.1330416802315
  0
LWPOLYLINE
  5
6E
100
AcDbEntity
  8
120mm_fan-Mounting_hole_pattern
  6
ByLayer
 62
    7
370
   -1
100
AcDbPolyline
 90
   24
 70
    1
 43
0
 10
277.9189285070427
 20
290.6833062305475
 10
277.8766004647105
 20
291.2335707808635
 10
277.6226322107186
 20
291.7838353311795
 10
277.2840078720627
 20
292.2071157544995
 10
276.8607274487425
 20
292.5457400931555
 10
276.3527909407587
 20
292.7573803048155
 10
275.7601983481105
 20
292.8420363894795
 10
275.2099337977945
 20
292.7573803048155
 10
274.7019972898107
 20
292.5457400931555
 10
274.2787168664905
 20
292.2071157544995
 10
273.8977644855025
 20
291.7838353311795
 10
273.6861242738427
 20
291.2335707808635
 10
273.6437962315105
 20
290.6833062305475
 10
273.6861242738427
 20
290.1330416802315
 10
273.8977644855025
 20
289.6251051722475
 10
274.2787168664905
 20
289.1594967065955
 10
274.7019972898107
 20
288.8208723679394
 10
275.2099337977945
 20
288.6092321562795
 10
275.7601983481105
 20
288.5245760716155
 10
276.3527909407587
 20
288.6092321562795
 10
276.8607274487425
 20
288.8208723679394
 10
277.2840078720627
 20
289.1594967065955
 10
277.6226322107186
 20
289.6251051722475
 10
277.8766004647105
 20
290.1330416802315
  0
LWPOLYLINE
  5
6F
100
AcDbEntity
  8
120mm_fan-Mounting_hole_pattern
  6
ByLayer
 62
    7
370
   -1
100
AcDbPolyline
 90
    2
 70
    0
 43
0
 10
163.8808412955792
 20
159.1559377061008
 10
163.8808412955792
 20
269.1665211379036
  0
LWPOLYLINE
  5
70
100
AcDbEntity
  8
120mm_fan-Mounting_hole_pattern
  6
ByLayer
 62
    7
370
   -1
100
AcDbPolyline
 90
    2
 70
    0
 43
0
 10
278.886133722558
 20
154.1612287109248
 10
168.8755499380215
 20
154.1612287109248
  0
LWPOLYLINE
  5
71
100
AcDbEntity
  8
120mm_fan-Mounting_hole_pattern
  6
ByLayer
 62
    7
370
   -1
100
AcDbPolyline
 90
    2
 70
    0
 43
0
 10
171.4152328306752
 20
266.669163818446
 10
171.4152328306752
 20
264.7220791621793
  0
LWPOLYLINE
  5
72
100
AcDbEntity
  8
120mm_fan-Mounting_hole_pattern
  6
ByLayer
 62
    7
370
   -1
100
AcDbPolyline
 90
    2
 70
    0
 43
0
 10
171.4152328306752
 20
263.9601719310675
 10
171.4152328306752
 20
263.1982671690915
  0
LWPOLYLINE
  5
73
100
AcDbEntity
  8
120mm_fan-Mounting_hole_pattern
  6
ByLayer
 62
    7
370
   -1
100
AcDbPolyline
 90
    2
 70
    0
 43
0
 10
283.8808374267286
 20
269.1665211379036
 10
283.8808374267286
 20
159.1559401752366
  0
LWPOLYLINE
  5
74
100
AcDbEntity
  8
120mm_fan-Mounting_hole_pattern
  6
ByLayer
 62
    7
370
   -1
100
AcDbPolyline
 90
    2
 70
    0
 43
0
 10
168.875552759891
 20
274.1612326022153
 10
278.8861256096832
 20
274.1612326022153
  0
LWPOLYLINE
  5
75
100
AcDbEntity
  8
120mm_fan-Mounting_hole_pattern
  6
ByLayer
 62
    7
370
   -1
100
AcDbPolyline
 90
  116
 70
    1
 43
0
 10
281.8490966857979
 20
214.1400654008361
 10
281.7644406011339
 20
217.3146685757362
 10
281.5104723471419
 20
220.4469437083042
 10
281.087191923822
 20
223.5368907985402
 10
280.494599331174
 20
226.6268382415099
 10
279.7326945691979
 20
229.6744572894139
 10
278.843805680226
 20
232.6797486477195
 10
277.743276579594
 20
235.6427109054922
 10
276.5157633519659
 20
238.5210191950029
 10
275.1189376022762
 20
241.3146689307138
 10
273.5528000359922
 20
244.0659916822938
 10
271.8596790481796
 20
246.6903303068779
 10
270.0395728751701
 20
249.2723408891299
 10
268.0924829278979
 20
251.6850393020538
 10
265.9760804585643
 20
254.0554096726459
 10
263.7750222573003
 20
256.2564678739099
 10
261.404652239442
 20
258.3728699905099
 10
258.9919531210506
 20
260.3199599377819
 10
256.4099418333312
 20
262.1400661107915
 10
253.7856042669482
 20
263.8331878040716
 10
251.0342815153682
 20
265.3993225484861
 10
248.2406307214563
 20
266.7961479454421
 10
245.3623238428803
 20
268.02366117307
 10
242.3993633487761
 20
269.1241930955715
 10
239.3940695213346
 20
270.0554100268755
 10
236.3464504734306
 20
270.7749867465195
 10
233.2565062050641
 20
271.3675818083033
 10
230.1665562929586
 20
271.7908597624875
 10
227.0342811603906
 20
272.0448280164795
 10
223.8596779854905
 20
272.1718121434755
 10
220.7274053220584
 20
272.0448280164795
 10
217.5951277203546
 20
271.7908597624875
 10
214.5051806301186
 20
271.3675818083033
 10
211.4152360090184
 20
270.7749867465195
 10
208.3676116701091
 20
270.0554100268755
 10
205.3623231336729
 20
269.1241930955715
 10
202.3993577012971
 20
268.02366117307
 10
199.5210508227211
 20
266.7961479454421
 10
196.7273996760754
 20
265.3993225484861
 10
193.9760797463649
 20
263.8331878040716
 10
191.3517435909167
 20
262.1400661107915
 10
188.7697305395289
 20
260.3199599377819
 10
186.3570345957407
 20
258.3728699905099
 10
183.9866589341434
 20
256.2564678739099
 10
181.7856060238847
 20
254.0554096726459
 10
179.6692039072847
 20
251.6850393020538
 10
177.7221086690074
 20
249.2723408891299
 10
175.9020028487314
 20
246.6903303068779
 10
174.2088836245872
 20
244.0659916822938
 10
172.6427488801727
 20
241.3146689307138
 10
171.2459234832167
 20
238.5210191950029
 10
170.0184074337192
 20
235.6427109054922
 10
168.9178783330872
 20
232.6797486477195
 10
168.028991913251
 20
229.6744572894139
 10
167.2670846821392
 20
226.6268382415099
 10
166.674494558627
 20
223.5368907985402
 10
166.251214135307
 20
220.4469437083042
 10
165.9972405903097
 20
217.3146685757362
 10
165.912589796651
 20
214.1400654008361
 10
165.9972405903097
 20
211.0077902682681
 10
166.251214135307
 20
207.8755151357001
 10
166.674494558627
 20
204.7855676927305
 10
167.2670846821392
 20
201.6956206024945
 10
168.028991913251
 20
198.6480015545905
 10
168.9178783330872
 20
195.6427112544859
 10
170.0184074337192
 20
192.6797468803111
 10
171.2459234832167
 20
189.8014407072025
 10
172.6427488801727
 20
187.0077899132905
 10
174.2088836245872
 20
184.2564671617105
 10
175.9020028487314
 20
181.6321285371265
 10
177.7221086690074
 20
179.0501179548745
 10
179.6692039072847
 20
176.5950911468848
 10
181.7856060238847
 20
174.2670488186248
 10
183.9866589341434
 20
172.0659934392303
 10
186.3570345957407
 20
169.9495913226303
 10
188.7697305395289
 20
168.0025013753583
 10
191.3517435909167
 20
166.1400646908808
 10
193.9760797463649
 20
164.4469429976008
 10
196.7273996760754
 20
162.9231306517793
 10
199.5210508227211
 20
161.5263080766928
 10
202.3993577012971
 20
160.2987948490648
 10
205.3623231336729
 20
159.1982682175686
 10
208.3676116701091
 20
158.2670488171288
 10
211.4152360090184
 20
157.5051440551528
 10
214.5051806301186
 20
156.9125486406353
 10
217.5951277203546
 20
156.4892710391848
 10
220.7274053220584
 20
156.2353027851928
 10
223.8596779854905
 20
156.1506467005288
 10
227.0342811603906
 20
156.2353027851928
 10
230.1665562929586
 20
156.4892710391848
 10
233.2565062050641
 20
156.9125486406353
 10
236.3464504734306
 20
157.5051440551528
 10
239.3940695213346
 20
158.2670488171288
 10
242.3993633487761
 20
159.1982682175686
 10
245.3623238428803
 20
160.2987948490648
 10
248.2406307214563
 20
161.5263080766928
 10
251.0342815153682
 20
162.9231306517793
 10
253.7856042669482
 20
164.4469429976008
 10
256.4099418333312
 20
166.1400646908808
 10
258.9919531210506
 20
168.0025013753583
 10
261.404652239442
 20
169.9495913226303
 10
263.7750222573003
 20
172.0659934392303
 10
265.9760804585643
 20
174.2670488186248
 10
268.0924829278979
 20
176.5950911468848
 10
270.0395728751701
 20
179.0501179548745
 10
271.8596790481796
 20
181.6321285371265
 10
273.5528000359922
 20
184.2564671617105
 10
275.1189376022762
 20
187.0077899132905
 10
276.5157633519659
 20
189.8014407072025
 10
277.743276579594
 20
192.6797468803111
 10
278.843805680226
 20
195.6427112544859
 10
279.7326945691979
 20
198.6480015545905
 10
280.494599331174
 20
201.6956206024945
 10
281.087191923822
 20
204.7855676927305
 10
281.5104723471419
 20
207.8755151357001
 10
281.7644406011339
 20
211.0077902682681
  0
LWPOLYLINE
  5
76
100
AcDbEntity
  8
120mm_fan-Mounting_hole_pattern
  6
ByLayer
 62
    7
370
   -1
100
AcDbPolyline
 90
   10
 70
    0
 43
0
 10
163.8808412955792
 20
159.1559377061008
 10
163.9654973802432
 20
158.3093768594608
 10
164.1771375919032
 20
157.4628160128208
 10
164.5580899728912
 20
156.6585832085128
 10
165.0660264808752
 20
155.9390064888688
 10
165.7009471158552
 20
155.3464138962208
 10
166.3781957931672
 20
154.8384773882368
 10
167.1824285974752
 20
154.4575250072488
 10
168.0289894441152
 20
154.2458847955888
 10
168.8755499380215
 20
154.1612287109248
  0
LWPOLYLINE
  5
77
100
AcDbEntity
  8
120mm_fan-Mounting_hole_pattern
  6
ByLayer
 62
    7
370
   -1
100
AcDbPolyline
 90
   10
 70
    0
 43
0
 10
168.8755502907552
 20
274.1612301330795
 10
168.0289894441152
 20
274.0765740484155
 10
167.1824285974752
 20
273.8649338367555
 10
166.3781957931672
 20
273.4839814557676
 10
165.7009471158552
 20
272.9760449477835
 10
165.0660264808752
 20
272.3834523551356
 10
164.5580899728912
 20
271.6638756354915
 10
164.1771375919032
 20
270.8596428311835
 10
163.9654977329769
 20
270.0130819845435
 10
163.8808416483129
 20
269.1665214906372
  0
LWPOLYLINE
  5
78
100
AcDbEntity
  8
120mm_fan-Mounting_hole_pattern
  6
ByLayer
 62
    7
370
   -1
100
AcDbPolyline
 90
   10
 70
    0
 43
0
 10
283.8808427177339
 20
269.1665211379036
 10
283.79618663307
 20
270.0130819845435
 10
283.5422183790779
 20
270.8596428311835
 10
283.203594040422
 20
271.6638756354915
 10
282.695657532438
 20
272.3834523551356
 10
282.0607368974579
 20
272.9760449477835
 10
281.3834882201459
 20
273.4839814557676
 10
280.5792554158379
 20
273.8649338367555
 10
279.7326945691979
 20
274.0765736956818
 10
278.8861340752917
 20
274.1612297803458
  0
LWPOLYLINE
  5
79
100
AcDbEntity
  8
120mm_fan-Mounting_hole_pattern
  6
ByLayer
 62
    7
370
   -1
100
AcDbPolyline
 90
   10
 70
    0
 43
0
 10
278.886133722558
 20
154.1612287109248
 10
279.7326945691979
 20
154.2458847955888
 10
280.5792554158379
 20
154.4575250072488
 10
281.3834882201459
 20
154.8384773882368
 10
282.0607368974579
 20
155.3464138962208
 10
282.695657532438
 20
155.9390064888688
 10
283.203594040422
 20
156.6585832085128
 10
283.5422183790779
 20
157.4628160128208
 10
283.7961862803363
 20
158.3093768594608
 10
283.8808423650003
 20
159.1559373533671
  0
LWPOLYLINE
  5
7A
100
AcDbEntity
  8
120mm_fan-Mounting_hole_pattern
  6
ByLayer
 62
    7
370
   -1
100
AcDbPolyline
 90
   24
 70
    1
 43
0
 10
173.5316349472752
 20
266.6691666403156
 10
173.4893069049432
 20
267.2194311906316
 10
173.2353386509512
 20
267.7273676986155
 10
172.8967143122952
 20
268.1506481219356
 10
172.4734338889752
 20
268.5316005029235
 10
171.9654973809912
 20
268.7432407145835
 10
171.4152328306752
 20
268.7855687569156
 10
170.8226402380272
 20
268.7432407145835
 10
170.3147037300432
 20
268.5316005029235
 10
169.8914233067232
 20
268.1506481219356
 10
169.5527989680672
 20
267.7273676986155
 10
169.2988307140752
 20
267.2194311906316
 10
169.2565026717432
 20
266.6691666403156
 10
169.2988307140752
 20
266.0765740476675
 10
169.5527989680672
 20
265.5686375396836
 10
169.8914233067232
 20
265.1453571163635
 10
170.3147037300432
 20
264.8067327777075
 10
170.8226402380272
 20
264.5950925660475
 10
171.4152328306752
 20
264.5104364813835
 10
171.9654973809912
 20
264.5950925660475
 10
172.4734338889752
 20
264.8067327777075
 10
172.8967143122952
 20
265.1453571163635
 10
173.2353386509512
 20
265.5686375396836
 10
173.4893069049432
 20
266.0765740476675
  0
LWPOLYLINE
  5
7B
100
AcDbEntity
  8
120mm_fan-Mounting_hole_pattern
  6
ByLayer
 62
    7
370
   -1
100
AcDbPolyline
 90
   24
 70
    1
 43
0
 10
278.5051813415701
 20
266.6691666403156
 10
278.4628532992378
 20
267.2194311906316
 10
278.2088850452459
 20
267.7273676986155
 10
277.87026070659
 20
268.1506481219356
 10
277.4469802832699
 20
268.5316005029235
 10
276.939043775286
 20
268.7432407145835
 10
276.3464511826379
 20
268.7855687569156
 10
275.7961866323219
 20
268.7432407145835
 10
275.288250124338
 20
268.5316005029235
 10
274.8649697010179
 20
268.1506481219356
 10
274.4840173200299
 20
267.7273676986155
 10
274.2723771083701
 20
267.2194311906316
 10
274.2300490660379
 20
266.6691666403156
 10
274.2723771083701
 20
266.0765740476675
 10
274.4840173200299
 20
265.5686375396836
 10
274.8649697010179
 20
265.1453571163635
 10
275.288250124338
 20
264.8067327777075
 10
275.7961866323219
 20
264.5950925660475
 10
276.3464511826379
 20
264.5104364813835
 10
276.939043775286
 20
264.5950925660475
 10
277.4469802832699
 20
264.8067327777075
 10
277.87026070659
 20
265.1453571163635
 10
278.2088850452459
 20
265.5686375396836
 10
278.4628532992378
 20
266.0765740476675
  0
LWPOLYLINE
  5
7C
100
AcDbEntity
  8
120mm_fan-Mounting_hole_pattern
  6
ByLayer
 62
    7
370
   -1
100
AcDbPolyline
 90
   24
 70
    1
 43
0
 10
173.5316349472752
 20
161.6532922036888
 10
173.4893069049432
 20
162.2035567540048
 10
173.2353386509512
 20
162.7538213043208
 10
172.8967143122952
 20
163.1771017276408
 10
172.4734338889752
 20
163.5157260662968
 10
171.9654973809912
 20
163.7273662779568
 10
171.4152328306752
 20
163.8120223626208
 10
170.8226402380272
 20
163.7273662779568
 10
170.3147037300432
 20
163.5157260662968
 10
169.8914233067232
 20
163.1771017276408
 10
169.5527989680672
 20
162.7538213043208
 10
169.2988307140752
 20
162.2035567540048
 10
169.2565026717432
 20
161.6532922036888
 10
169.2988307140752
 20
161.1030276533728
 10
169.5527989680672
 20
160.5950911453888
 10
169.8914233067232
 20
160.1294826797368
 10
170.3147037300432
 20
159.7908583410808
 10
170.8226402380272
 20
159.5792181294208
 10
171.4152328306752
 20
159.4945620447568
 10
171.9654973809912
 20
159.5792181294208
 10
172.4734338889752
 20
159.7908583410808
 10
172.8967143122952
 20
160.1294826797368
 10
173.2353386509512
 20
160.5950911453888
 10
173.4893069049432
 20
161.1030276533728
  0
LWPOLYLINE
  5
7D
100
AcDbEntity
  8
120mm_fan-Mounting_hole_pattern
  6
ByLayer
 62
    7
370
   -1
100
AcDbPolyline
 90
   24
 70
    1
 43
0
 10
278.5051813415701
 20
161.6532922036888
 10
278.4628532992378
 20
162.2035567540048
 10
278.2088850452459
 20
162.7538213043208
 10
277.87026070659
 20
163.1771017276408
 10
277.4469802832699
 20
163.5157260662968
 10
276.939043775286
 20
163.7273662779568
 10
276.3464511826379
 20
163.8120223626208
 10
275.7961866323219
 20
163.7273662779568
 10
275.288250124338
 20
163.5157260662968
 10
274.8649697010179
 20
163.1771017276408
 10
274.4840173200299
 20
162.7538213043208
 10
274.2723771083701
 20
162.2035567540048
 10
274.2300490660379
 20
161.6532922036888
 10
274.2723771083701
 20
161.1030276533728
 10
274.4840173200299
 20
160.5950911453888
 10
274.8649697010179
 20
160.1294826797368
 10
275.288250124338
 20
159.7908583410808
 10
275.7961866323219
 20
159.5792181294208
 10
276.3464511826379
 20
159.4945620447568
 10
276.939043775286
 20
159.5792181294208
 10
277.4469802832699
 20
159.7908583410808
 10
277.87026070659
 20
160.1294826797368
 10
278.2088850452459
 20
160.5950911453888
 10
278.4628532992378
 20
161.1030276533728
  0
LWPOLYLINE
  5
7E
100
AcDbEntity
  8
120mm_fan-Mounting_hole_pattern
  6
ByLayer
 62
    7
370
   -1
100
AcDbPolyline
 90
    2
 70
    0
 43
0
 10
292.8451682195083
 20
158.7709695660294
 10
292.8451682195083
 20
268.7815529978322
  0
LWPOLYLINE
  5
7F
100
AcDbEntity
  8
120mm_fan-Mounting_hole_pattern
  6
ByLayer
 62
    7
370
   -1
100
AcDbPolyline
 90
    2
 70
    0
 43
0
 10
407.8504606464871
 20
153.7762605708534
 10
297.8398768619506
 20
153.7762605708534
  0
LWPOLYLINE
  5
80
100
AcDbEntity
  8
120mm_fan-Mounting_hole_pattern
  6
ByLayer
 62
    7
370
   -1
100
AcDbPolyline
 90
    2
 70
    0
 43
0
 10
300.3795597546043
 20
266.2841956783746
 10
300.3795597546043
 20
264.3371110221079
  0
LWPOLYLINE
  5
81
100
AcDbEntity
  8
120mm_fan-Mounting_hole_pattern
  6
ByLayer
 62
    7
370
   -1
100
AcDbPolyline
 90
    2
 70
    0
 43
0
 10
300.3795597546043
 20
263.5752037909961
 10
300.3795597546043
 20
262.8132990290201
  0
LWPOLYLINE
  5
82
100
AcDbEntity
  8
120mm_fan-Mounting_hole_pattern
  6
ByLayer
 62
    7
370
   -1
100
AcDbPolyline
 90
    2
 70
    0
 43
0
 10
412.8451643506577
 20
268.7815529978322
 10
412.8451643506577
 20
158.7709720351652
  0
LWPOLYLINE
  5
83
100
AcDbEntity
  8
120mm_fan-Mounting_hole_pattern
  6
ByLayer
 62
    7
370
   -1
100
AcDbPolyline
 90
    2
 70
    0
 43
0
 10
297.8398796838201
 20
273.7762644621439
 10
407.8504525336123
 20
273.7762644621439
  0
LWPOLYLINE
  5
84
100
AcDbEntity
  8
120mm_fan-Mounting_hole_pattern
  6
ByLayer
 62
    7
370
   -1
100
AcDbPolyline
 90
  116
 70
    1
 43
0
 10
410.813423609727
 20
213.7550972607647
 10
410.728767525063
 20
216.9297004356648
 10
410.474799271071
 20
220.0619755682328
 10
410.0515188477511
 20
223.1519226584688
 10
409.4589262551031
 20
226.2418701014385
 10
408.697021493127
 20
229.2894891493425
 10
407.8081326041551
 20
232.2947805076481
 10
406.7076035035231
 20
235.2577427654208
 10
405.480090275895
 20
238.1360510549315
 10
404.0832645262053
 20
240.9297007906424
 10
402.5171269599213
 20
243.6810235422224
 10
400.8240059721088
 20
246.3053621668065
 10
399.0038997990991
 20
248.8873727490585
 10
397.056809851827
 20
251.3000711619824
 10
394.9404073824934
 20
253.6704415325745
 10
392.7393491812294
 20
255.8714997338385
 10
390.3689791633711
 20
257.9879018504385
 10
387.9562800449797
 20
259.9349917977105
 10
385.3742687572603
 20
261.7550979707201
 10
382.7499311908773
 20
263.4482196640002
 10
379.9986084392973
 20
265.0143544084147
 10
377.2049576453854
 20
266.4111798053707
 10
374.3266507668094
 20
267.6386930329986
 10
371.3636902727052
 20
268.7392249555001
 10
368.3583964452637
 20
269.6704418868041
 10
365.3107773973597
 20
270.3900186064481
 10
362.2208331289932
 20
270.9826136682319
 10
359.1308832168877
 20
271.4058916224161
 10
355.9986080843197
 20
271.6598598764081
 10
352.8240049094196
 20
271.7868440034041
 10
349.6917322459875
 20
271.6598598764081
 10
346.5594546442837
 20
271.4058916224161
 10
343.4695075540477
 20
270.9826136682319
 10
340.3795629329475
 20
270.3900186064481
 10
337.3319385940382
 20
269.6704418868041
 10
334.326650057602
 20
268.7392249555001
 10
331.3636846252262
 20
267.6386930329986
 10
328.4853777466502
 20
266.4111798053707
 10
325.6917266000045
 20
265.0143544084147
 10
322.940406670294
 20
263.4482196640002
 10
320.3160705148458
 20
261.7550979707201
 10
317.734057463458
 20
259.9349917977105
 10
315.3213615196698
 20
257.9879018504385
 10
312.9509858580725
 20
255.8714997338385
 10
310.7499329478138
 20
253.6704415325745
 10
308.6335308312138
 20
251.3000711619824
 10
306.6864355929365
 20
248.8873727490585
 10
304.8663297726605
 20
246.3053621668065
 10
303.1732105485163
 20
243.6810235422224
 10
301.6070758041018
 20
240.9297007906424
 10
300.2102504071458
 20
238.1360510549315
 10
298.9827343576483
 20
235.2577427654208
 10
297.8822052570163
 20
232.2947805076481
 10
296.9933188371801
 20
229.2894891493425
 10
296.2314116060683
 20
226.2418701014385
 10
295.6388214825561
 20
223.1519226584688
 10
295.2155410592361
 20
220.0619755682328
 10
294.9615675142388
 20
216.9297004356648
 10
294.8769167205801
 20
213.7550972607647
 10
294.9615675142388
 20
210.6228221281967
 10
295.2155410592361
 20
207.4905469956287
 10
295.6388214825561
 20
204.4005995526591
 10
296.2314116060683
 20
201.3106524624231
 10
296.9933188371801
 20
198.2630334145191
 10
297.8822052570163
 20
195.2577431144145
 10
298.9827343576483
 20
192.2947787402397
 10
300.2102504071458
 20
189.4164725671311
 10
301.6070758041018
 20
186.6228217732191
 10
303.1732105485163
 20
183.8714990216391
 10
304.8663297726605
 20
181.2471603970551
 10
306.6864355929365
 20
178.6651498148031
 10
308.6335308312138
 20
176.2101230068134
 10
310.7499329478138
 20
173.8820806785534
 10
312.9509858580725
 20
171.6810252991589
 10
315.3213615196698
 20
169.5646231825589
 10
317.734057463458
 20
167.6175332352869
 10
320.3160705148458
 20
165.7550965508094
 10
322.940406670294
 20
164.0619748575294
 10
325.6917266000045
 20
162.5381625117079
 10
328.4853777466502
 20
161.1413399366214
 10
331.3636846252262
 20
159.9138267089934
 10
334.326650057602
 20
158.8133000774972
 10
337.3319385940382
 20
157.8820806770574
 10
340.3795629329475
 20
157.1201759150814
 10
343.4695075540477
 20
156.5275805005639
 10
346.5594546442837
 20
156.1043028991134
 10
349.6917322459875
 20
155.8503346451214
 10
352.8240049094196
 20
155.7656785604574
 10
355.9986080843197
 20
155.8503346451214
 10
359.1308832168877
 20
156.1043028991134
 10
362.2208331289932
 20
156.5275805005639
 10
365.3107773973597
 20
157.1201759150814
 10
368.3583964452637
 20
157.8820806770574
 10
371.3636902727052
 20
158.8133000774972
 10
374.3266507668094
 20
159.9138267089934
 10
377.2049576453854
 20
161.1413399366214
 10
379.9986084392973
 20
162.5381625117079
 10
382.7499311908773
 20
164.0619748575294
 10
385.3742687572603
 20
165.7550965508094
 10
387.9562800449797
 20
167.6175332352869
 10
390.3689791633711
 20
169.5646231825589
 10
392.7393491812294
 20
171.6810252991589
 10
394.9404073824934
 20
173.8820806785534
 10
397.056809851827
 20
176.2101230068134
 10
399.0038997990991
 20
178.6651498148031
 10
400.8240059721088
 20
181.2471603970551
 10
402.5171269599213
 20
183.8714990216391
 10
404.0832645262053
 20
186.6228217732191
 10
405.480090275895
 20
189.4164725671311
 10
406.7076035035231
 20
192.2947787402397
 10
407.8081326041551
 20
195.2577431144145
 10
408.697021493127
 20
198.2630334145191
 10
409.4589262551031
 20
201.3106524624231
 10
410.0515188477511
 20
204.4005995526591
 10
410.474799271071
 20
207.4905469956287
 10
410.728767525063
 20
210.6228221281967
  0
LWPOLYLINE
  5
85
100
AcDbEntity
  8
120mm_fan-Mounting_hole_pattern
  6
ByLayer
 62
    7
370
   -1
100
AcDbPolyline
 90
   10
 70
    0
 43
0
 10
292.8451682195083
 20
158.7709695660294
 10
292.9298243041723
 20
157.9244087193894
 10
293.1414645158323
 20
157.0778478727494
 10
293.5224168968203
 20
156.2736150684414
 10
294.0303534048043
 20
155.5540383487974
 10
294.6652740397843
 20
154.9614457561494
 10
295.3425227170963
 20
154.4535092481654
 10
296.1467555214043
 20
154.0725568671774
 10
296.9933163680443
 20
153.8609166555174
 10
297.8398768619506
 20
153.7762605708534
  0
LWPOLYLINE
  5
86
100
AcDbEntity
  8
120mm_fan-Mounting_hole_pattern
  6
ByLayer
 62
    7
370
   -1
100
AcDbPolyline
 90
   10
 70
    0
 43
0
 10
297.8398772146843
 20
273.7762619930081
 10
296.9933163680443
 20
273.6916059083441
 10
296.1467555214043
 20
273.4799656966841
 10
295.3425227170963
 20
273.0990133156962
 10
294.6652740397843
 20
272.5910768077121
 10
294.0303534048043
 20
271.9984842150642
 10
293.5224168968203
 20
271.2789074954201
 10
293.1414645158323
 20
270.4746746911121
 10
292.929824656906
 20
269.6281138444721
 10
292.845168572242
 20
268.7815533505658
  0
LWPOLYLINE
  5
87
100
AcDbEntity
  8
120mm_fan-Mounting_hole_pattern
  6
ByLayer
 62
    7
370
   -1
100
AcDbPolyline
 90
   10
 70
    0
 43
0
 10
412.845169641663
 20
268.7815529978322
 10
412.7605135569991
 20
269.6281138444721
 10
412.506545303007
 20
270.4746746911121
 10
412.1679209643511
 20
271.2789074954201
 10
411.6599844563671
 20
271.9984842150642
 10
411.0250638213871
 20
272.5910768077121
 10
410.347815144075
 20
273.0990133156962
 10
409.543582339767
 20
273.4799656966841
 10
408.697021493127
 20
273.6916055556104
 10
407.8504609992208
 20
273.7762616402744
  0
LWPOLYLINE
  5
88
100
AcDbEntity
  8
120mm_fan-Mounting_hole_pattern
  6
ByLayer
 62
    7
370
   -1
100
AcDbPolyline
 90
   10
 70
    0
 43
0
 10
407.8504606464871
 20
153.7762605708534
 10
408.697021493127
 20
153.8609166555174
 10
409.543582339767
 20
154.0725568671774
 10
410.347815144075
 20
154.4535092481654
 10
411.0250638213871
 20
154.9614457561494
 10
411.6599844563671
 20
155.5540383487974
 10
412.1679209643511
 20
156.2736150684414
 10
412.506545303007
 20
157.0778478727494
 10
412.7605132042654
 20
157.9244087193894
 10
412.8451692889294
 20
158.7709692132957
  0
LWPOLYLINE
  5
89
100
AcDbEntity
  8
120mm_fan-Mounting_hole_pattern
  6
ByLayer
 62
    7
370
   -1
100
AcDbPolyline
 90
   24
 70
    1
 43
0
 10
302.4959618712043
 20
266.2841985002442
 10
302.4536338288723
 20
266.8344630505602
 10
302.1996655748803
 20
267.3423995585441
 10
301.8610412362243
 20
267.7656799818642
 10
301.4377608129043
 20
268.1466323628521
 10
300.9298243049203
 20
268.3582725745121
 10
300.3795597546043
 20
268.4006006168442
 10
299.7869671619563
 20
268.3582725745121
 10
299.2790306539723
 20
268.1466323628521
 10
298.8557502306523
 20
267.7656799818642
 10
298.5171258919963
 20
267.3423995585441
 10
298.2631576380043
 20
266.8344630505602
 10
298.2208295956723
 20
266.2841985002442
 10
298.2631576380043
 20
265.6916059075961
 10
298.5171258919963
 20
265.1836693996122
 10
298.8557502306523
 20
264.7603889762921
 10
299.2790306539723
 20
264.4217646376361
 10
299.7869671619563
 20
264.2101244259761
 10
300.3795597546043
 20
264.1254683413121
 10
300.9298243049203
 20
264.2101244259761
 10
301.4377608129043
 20
264.4217646376361
 10
301.8610412362243
 20
264.7603889762921
 10
302.1996655748803
 20
265.1836693996122
 10
302.4536338288723
 20
265.6916059075961
  0
LWPOLYLINE
  5
8A
100
AcDbEntity
  8
120mm_fan-Mounting_hole_pattern
  6
ByLayer
 62
    7
370
   -1
100
AcDbPolyline
 90
   24
 70
    1
 43
0
 10
407.4695082654991
 20
266.2841985002442
 10
407.427180223167
 20
266.8344630505602
 10
407.173211969175
 20
267.3423995585441
 10
406.8345876305191
 20
267.7656799818642
 10
406.411307207199
 20
268.1466323628521
 10
405.9033706992151
 20
268.3582725745121
 10
405.310778106567
 20
268.4006006168442
 10
404.760513556251
 20
268.3582725745121
 10
404.2525770482671
 20
268.1466323628521
 10
403.829296624947
 20
267.7656799818642
 10
403.448344243959
 20
267.3423995585441
 10
403.2367040322991
 20
266.8344630505602
 10
403.194375989967
 20
266.2841985002442
 10
403.2367040322991
 20
265.6916059075961
 10
403.448344243959
 20
265.1836693996122
 10
403.829296624947
 20
264.7603889762921
 10
404.2525770482671
 20
264.4217646376361
 10
404.760513556251
 20
264.2101244259761
 10
405.310778106567
 20
264.1254683413121
 10
405.9033706992151
 20
264.2101244259761
 10
406.411307207199
 20
264.4217646376361
 10
406.8345876305191
 20
264.7603889762921
 10
407.173211969175
 20
265.1836693996122
 10
407.427180223167
 20
265.6916059075961
  0
LWPOLYLINE
  5
8B
100
AcDbEntity
  8
120mm_fan-Mounting_hole_pattern
  6
ByLayer
 62
    7
370
   -1
100
AcDbPolyline
 90
   24
 70
    1
 43
0
 10
302.4959618712043
 20
161.2683240636174
 10
302.4536338288723
 20
161.8185886139334
 10
302.1996655748803
 20
162.3688531642494
 10
301.8610412362243
 20
162.7921335875694
 10
301.4377608129043
 20
163.1307579262254
 10
300.9298243049203
 20
163.3423981378854
 10
300.3795597546043
 20
163.4270542225494
 10
299.7869671619563
 20
163.3423981378854
 10
299.2790306539723
 20
163.1307579262254
 10
298.8557502306523
 20
162.7921335875694
 10
298.5171258919963
 20
162.3688531642494
 10
298.2631576380043
 20
161.8185886139334
 10
298.2208295956723
 20
161.2683240636174
 10
298.2631576380043
 20
160.7180595133014
 10
298.5171258919963
 20
160.2101230053174
 10
298.8557502306523
 20
159.7445145396654
 10
299.2790306539723
 20
159.4058902010094
 10
299.7869671619563
 20
159.1942499893494
 10
300.3795597546043
 20
159.1095939046854
 10
300.9298243049203
 20
159.1942499893494
 10
301.4377608129043
 20
159.4058902010094
 10
301.8610412362243
 20
159.7445145396654
 10
302.1996655748803
 20
160.2101230053174
 10
302.4536338288723
 20
160.7180595133014
  0
LWPOLYLINE
  5
8C
100
AcDbEntity
  8
120mm_fan-Mounting_hole_pattern
  6
ByLayer
 62
    7
370
   -1
100
AcDbPolyline
 90
   24
 70
    1
 43
0
 10
407.4695082654991
 20
161.2683240636174
 10
407.427180223167
 20
161.8185886139334
 10
407.173211969175
 20
162.3688531642494
 10
406.8345876305191
 20
162.7921335875694
 10
406.411307207199
 20
163.1307579262254
 10
405.9033706992151
 20
163.3423981378854
 10
405.310778106567
 20
163.4270542225494
 10
404.760513556251
 20
163.3423981378854
 10
404.2525770482671
 20
163.1307579262254
 10
403.829296624947
 20
162.7921335875694
 10
403.448344243959
 20
162.3688531642494
 10
403.2367040322991
 20
161.8185886139334
 10
403.194375989967
 20
161.2683240636174
 10
403.2367040322991
 20
160.7180595133014
 10
403.448344243959
 20
160.2101230053174
 10
403.829296624947
 20
159.7445145396654
 10
404.2525770482671
 20
159.4058902010094
 10
404.760513556251
 20
159.1942499893494
 10
405.310778106567
 20
159.1095939046854
 10
405.9033706992151
 20
159.1942499893494
 10
406.411307207199
 20
159.4058902010094
 10
406.8345876305191
 20
159.7445145396654
 10
407.173211969175
 20
160.2101230053174
 10
407.427180223167
 20
160.7180595133014
  0
LWPOLYLINE
  5
8D
100
AcDbEntity
  8
filters
  6
ByLayer
 62
  256
370
   -1
100
AcDbPolyline
 90
    4
 70
    1
 43
0
 10
120.9048478989105
 20
136.7463866435681
 10
155.9174805034495
 20
136.7463866435681
 10
155.9174805034495
 20
422.7479844144092
 10
120.9048478989105
 20
422.7479844144092
  0
LWPOLYLINE
  5
8E
100
AcDbEntity
  8
filters
  6
ByLayer
 62
  256
370
   -1
100
AcDbPolyline
 90
    4
 70
    1
 43
0
 10
441.9190782742907
 20
101.7337540390291
 10
441.9190782742907
 20
136.7463866435681
 10
155.9174805034495
 20
136.7463866435681
 10
155.9174805034495
 20
101.7337540390292
  0
LWPOLYLINE
  5
8F
100
AcDbEntity
  8
filters
  6
ByLayer
 62
  256
370
   -1
100
AcDbPolyline
 90
    4
 70
    1
 43
0
 10
441.9190782742907
 20
422.7479844144092
 10
441.9190782742907
 20
457.7606170189482
 10
155.9174805034495
 20
457.7606170189482
 10
155.9174805034495
 20
422.7479844144092
  0
LWPOLYLINE
  5
90
100
AcDbEntity
  8
filters
  6
ByLayer
 62
  256
370
   -1
100
AcDbPolyline
 90
    4
 70
    1
 43
0
 10
441.9190782742907
 20
136.7463866435681
 10
476.9317108788297
 20
136.7463866435681
 10
476.9317108788297
 20
422.7479844144092
 10
441.9190782742907
 20
422.7479844144092
  0
LWPOLYLINE
  5
91
100
AcDbEntity
  8
paaltjes
  6
ByLayer
 62
  256
370
   -1
100
AcDbPolyline
 90
    4
 70
    1
 43
0
 10
111.9174805034495
 20
466.7479844144092
 10
155.9174805034495
 20
466.7479844144092
 10
155.9174805034495
 20
422.7479844144092
 10
111.9174805034495
 20
422.7479844144092
  0
LWPOLYLINE
  5
92
100
AcDbEntity
  8
paaltjes
  6
ByLayer
 62
  256
370
   -1
100
AcDbPolyline
 90
    4
 70
    1
 43
0
 10
111.9174805034495
 20
136.7463866435681
 10
155.9174805034495
 20
136.7463866435681
 10
155.9174805034495
 20
92.74638664356814
 10
111.9174805034495
 20
92.74638664356814
  0
LWPOLYLINE
  5
93
100
AcDbEntity
  8
paaltjes
  6
ByLayer
 62
  256
370
   -1
100
AcDbPolyline
 90
    4
 70
    1
 43
0
 10
441.9190782742907
 20
466.7479844144092
 10
485.9190782742907
 20
466.7479844144092
 10
485.9190782742907
 20
422.7479844144092
 10
441.9190782742907
 20
422.7479844144092
  0
LWPOLYLINE
  5
94
100
AcDbEntity
  8
paaltjes
  6
ByLayer
 62
  256
370
   -1
100
AcDbPolyline
 90
    4
 70
    1
 43
0
 10
441.9190782742907
 20
136.7463866435682
 10
485.9190782742907
 20
136.7463866435682
 10
485.9190782742907
 20
92.7463866435682
 10
441.9190782742907
 20
92.7463866435682
  0
ENDSEC
  0
SECTION
  2
OBJECTS
  0
DICTIONARY
  5
C
330
0
100
AcDbDictionary
281
    1
  3
ACAD_GROUP
350
D
  0
DICTIONARY
  5
D
330
C
100
AcDbDictionary
281
    1
  0
ENDSEC
  0
EOF
