999
dxfrw 0.6.3
  0
SECTION
  2
HEADER
  9
$ACADVER
  1
AC1021
  9
$DWGCODEPAGE
  3
ANSI_1252
  9
$INSBASE
 10
0
 20
0
 30
0
  9
$EXTMIN
 10
111.9174805034495
 20
92.74638664356814
 30
0
  9
$EXTMAX
 10
485.9190782742907
 20
466.7479844144092
 30
0
  9
$LIMMIN
 10
0
 20
0
  9
$LIMMAX
 10
420
 20
297
  9
$ORTHOMODE
 70
    0
  9
$REGENMODE
 70
    1
  9
$FILLMODE
 70
    1
  9
$QTEXTMODE
 70
    0
  9
$MIRRTEXT
 70
    0
  9
$LTSCALE
 40
1
  9
$ATTMODE
 70
    0
  9
$TEXTSIZE
 40
2.5
  9
$TRACEWID
 40
15.68
  9
$TEXTSTYLE
  7
STANDARD
  9
$CLAYER
  8
screw holes fans
  9
$CELTYPE
  6
BYLAYER
  9
$CECOLOR
 62
  256
  9
$CELTSCALE
 40
1
  9
$DISPSILH
 70
    0
  9
$DIMSCALE
 40
1
  9
$DIMASZ
 40
2.5
  9
$DIMEXO
 40
0.625
  9
$DIMDLI
 40
3.75
  9
$DIMRND
 40
0
  9
$DIMDLE
 40
0
  9
$DIMEXE
 40
1.25
  9
$DIMTP
 40
0
  9
$DIMTM
 40
0
  9
$DIMTXT
 40
2.5
  9
$DIMCEN
 40
2.5
  9
$DIMTSZ
 40
0
  9
$DIMTOL
 70
    0
  9
$DIMLIM
 70
    0
  9
$DIMTIH
 70
    0
  9
$DIMTOH
 70
    0
  9
$DIMSE1
 70
    0
  9
$DIMSE2
 70
    0
  9
$DIMTAD
 70
    1
  9
$DIMZIN
 70
    8
  9
$DIMBLK
  1

  9
$DIMASO
 70
    1
  9
$DIMSHO
 70
    1
  9
$DIMPOST
  1

  9
$DIMAPOST
  1

  9
$DIMALT
 70
    0
  9
$DIMALTD
 70
    3
  9
$DIMALTF
 40
0.03937
  9
$DIMLFAC
 40
1
  9
$DIMTOFL
 70
    1
  9
$DIMTVP
 40
0
  9
$DIMTIX
 70
    0
  9
$DIMSOXD
 70
    0
  9
$DIMSAH
 70
    0
  9
$DIMBLK1
  1

  9
$DIMBLK2
  1

  9
$DIMSTYLE
  2
Standard
  9
$DIMCLRD
 70
    0
  9
$DIMCLRE
 70
    0
  9
$DIMCLRT
 70
    0
  9
$DIMTFAC
 40
1
  9
$DIMGAP
 40
0.625
  9
$DIMJUST
 70
    0
  9
$DIMSD1
 70
    0
  9
$DIMSD2
 70
    0
  9
$DIMTOLJ
 70
    0
  9
$DIMTZIN
 70
    8
  9
$DIMALTZ
 70
    0
  9
$DIMALTTZ
 70
    0
  9
$DIMUPT
 70
    0
  9
$DIMDEC
 70
    2
  9
$DIMTDEC
 70
    2
  9
$DIMALTU
 70
    2
  9
$DIMALTTD
 70
    3
  9
$DIMTXSTY
  7
standard
  9
$DIMAUNIT
 70
    0
  9
$DIMADEC
 70
    0
  9
$DIMALTRND
 40
0
  9
$DIMAZIN
 70
    0
  9
$DIMDSEP
 70
   44
  9
$DIMATFIT
 70
    3
  9
$DIMFRAC
 70
    0
  9
$DIMLDRBLK
  1
STANDARD
  9
$DIMLUNIT
 70
    2
  9
$DIMLWD
 70
   -2
  9
$DIMLWE
 70
   -2
  9
$DIMTMOVE
 70
    0
  9
$DIMFXL
 40
1
  9
$DIMFXLON
 70
    0
  9
$DIMJOGANG
 40
0.7854
  9
$DIMTFILL
 70
    0
  9
$DIMTFILLCLR
 70
    0
  9
$DIMARCSYM
 70
    0
  9
$DIMLTYPE
  6

  9
$DIMLTEX1
  6

  9
$DIMLTEX2
  6

  9
$LUNITS
 70
    2
  9
$LUPREC
 70
    4
  9
$SKETCHINC
 40
1
  9
$FILLETRAD
 40
0
  9
$AUNITS
 70
    0
  9
$AUPREC
 70
    2
  9
$MENU
  1
.
  9
$ELEVATION
 40
0
  9
$PELEVATION
 40
0
  9
$THICKNESS
 40
0
  9
$LIMCHECK
 70
    0
  9
$CHAMFERA
 40
0
  9
$CHAMFERB
 40
0
  9
$CHAMFERC
 40
0
  9
$CHAMFERD
 40
0
  9
$SKPOLY
 70
    0
  9
$USRTIMER
 70
    1
  9
$ANGBASE
 50
0
  9
$ANGDIR
 70
    0
  9
$PDMODE
 70
   34
  9
$PDSIZE
 40
0
  9
$PLINEWID
 40
0
  9
$SPLFRAME
 70
    0
  9
$SPLINETYPE
 70
    2
  9
$SPLINESEGS
 70
    8
  9
$HANDSEED
  5
20000
  9
$SURFTAB1
 70
    6
  9
$SURFTAB2
 70
    6
  9
$SURFTYPE
 70
    6
  9
$SURFU
 70
    6
  9
$SURFV
 70
    6
  9
$UCSBASE
  2

  9
$UCSNAME
  2

  9
$UCSORG
 10
0
 20
0
 30
0
  9
$UCSXDIR
 10
1
 20
0
 30
0
  9
$UCSYDIR
 10
0
 20
1
 30
0
  9
$UCSORTHOREF
  2

  9
$UCSORTHOVIEW
 70
    0
  9
$UCSORGTOP
 10
0
 20
0
 30
0
  9
$UCSORGBOTTOM
 10
0
 20
0
 30
0
  9
$UCSORGLEFT
 10
0
 20
0
 30
0
  9
$UCSORGRIGHT
 10
0
 20
0
 30
0
  9
$UCSORGFRONT
 10
0
 20
0
 30
0
  9
$UCSORGBACK
 10
0
 20
0
 30
0
  9
$PUCSBASE
  2

  9
$PUCSNAME
  2

  9
$PUCSORG
 10
0
 20
0
 30
0
  9
$PUCSXDIR
 10
1
 20
0
 30
0
  9
$PUCSYDIR
 10
0
 20
1
 30
0
  9
$PUCSORTHOREF
  2

  9
$PUCSORTHOVIEW
 70
    0
  9
$PUCSORGTOP
 10
0
 20
0
 30
0
  9
$PUCSORGBOTTOM
 10
0
 20
0
 30
0
  9
$PUCSORGLEFT
 10
0
 20
0
 30
0
  9
$PUCSORGRIGHT
 10
0
 20
0
 30
0
  9
$PUCSORGFRONT
 10
0
 20
0
 30
0
  9
$PUCSORGBACK
 10
0
 20
0
 30
0
  9
$USERI1
 70
    0
  9
$USERI2
 70
    0
  9
$USERI3
 70
    0
  9
$USERI4
 70
    0
  9
$USERI5
 70
    0
  9
$USERR1
 40
0
  9
$USERR2
 40
0
  9
$USERR3
 40
0
  9
$USERR4
 40
0
  9
$USERR5
 40
0
  9
$WORLDVIEW
 70
    1
  9
$SHADEDGE
 70
    3
  9
$SHADEDIF
 70
   70
  9
$TILEMODE
 70
    1
  9
$MAXACTVP
 70
   64
  9
$PINSBASE
 10
0
 20
0
 30
0
  9
$PLIMCHECK
 70
    0
  9
$PEXTMIN
 10
0
 20
0
 30
0
  9
$PEXTMAX
 10
0
 20
0
 30
0
  9
$GRIDMODE
 70
    1
  9
$SNAPSTYLE
 70
    0
  9
$GRIDUNIT
 10
0
 20
0
  9
$PLIMMIN
 10
0
 20
0
  9
$PLIMMAX
 10
210
 20
297
  9
$UNITMODE
 70
    0
  9
$VISRETAIN
 70
    1
  9
$PLINEGEN
 70
    0
  9
$PSLTSCALE
 70
    1
  9
$TREEDEPTH
 70
 3020
  9
$CMLSTYLE
  2
Standard
  9
$CMLJUST
 70
    0
  9
$CMLSCALE
 40
20
  9
$PROXYGRAPHICS
 70
    1
  9
$MEASUREMENT
 70
    1
  9
$CELWEIGHT
370
   -1
  9
$ENDCAPS
280
    0
  9
$JOINSTYLE
280
    0
  9
$LWDISPLAY
290
    0
  9
$INSUNITS
 70
    4
  9
$HYPERLINKBASE
  1

  9
$STYLESHEET
  1

  9
$XEDIT
290
    1
  9
$CEPSNTYPE
380
    0
  9
$PSTYLEMODE
290
    1
  9
$EXTNAMES
290
    1
  9
$PSVPSCALE
 40
1
  9
$OLESTARTUP
290
    0
  9
$SORTENTS
280
  127
  9
$INDEXCTL
280
    0
  9
$HIDETEXT
280
    1
  9
$XCLIPFRAME
290
    0
  9
$HALOGAP
280
    0
  9
$OBSCOLOR
 70
  257
  9
$OBSLTYPE
280
    0
  9
$INTERSECTIONDISPLAY
280
    0
  9
$INTERSECTIONCOLOR
 70
  257
  9
$DIMASSOC
280
    1
  9
$PROJECTNAME
  1

  9
$CAMERADISPLAY
290
    0
  9
$LENSLENGTH
 40
50
  9
$CAMERAHEIGHT
 40
0
  9
$STEPSPERSEC
 40
2
  9
$STEPSIZE
 40
50
  9
$3DDWFPREC
 40
2
  9
$PSOLWIDTH
 40
5
  9
$PSOLHEIGHT
 40
80
  9
$LOFTANG1
 40
1.570796326794897
  9
$LOFTANG2
 40
1.570796326794897
  9
$LOFTMAG1
 40
0
  9
$LOFTMAG2
 40
0
  9
$LOFTPARAM
 70
    7
  9
$LOFTNORMALS
280
    1
  9
$LATITUDE
 40
1
  9
$LONGITUDE
 40
1
  9
$NORTHDIRECTION
 40
0
  9
$TIMEZONE
 70
-8000
  9
$LIGHTGLYPHDISPLAY
280
    1
  9
$TILEMODELIGHTSYNCH
280
    1
  9
$SOLIDHIST
280
    1
  9
$SHOWHIST
280
    1
  9
$DWFFRAME
280
    2
  9
$DGNFRAME
280
    0
  9
$REALWORLDSCALE
290
    1
  9
$INTERFERECOLOR
 62
    1
  9
$CSHADOW
280
    0
  9
$SHADOWPLANELOCATION
 40
0
  0
ENDSEC
  0
SECTION
  2
CLASSES
  0
ENDSEC
  0
SECTION
  2
TABLES
  0
TABLE
  2
VPORT
  5
8
330
0
100
AcDbSymbolTable
 70
    1
  0
VPORT
  5
31
330
2
100
AcDbSymbolTableRecord
100
AcDbViewportTableRecord
  2
*ACTIVE
 70
    0
 10
0
 20
0
 11
1
 21
1
 12
310.4179880764889
 22
269.1368475500198
 13
0
 23
0
 14
10
 24
10
 15
10
 25
10
 16
0
 26
0
 36
1
 17
0
 27
0
 37
0
 40
518.8472760287599
 41
1.865834633385336
 42
50
 43
0
 44
0
 50
0
 51
0
 71
    0
 72
  100
 73
    1
 74
    3
 75
    0
 76
    1
 77
    0
 78
    0
281
    0
 65
    1
110
0
120
0
130
0
111
1
121
0
131
0
112
0
122
1
132
0
 79
    0
146
0
348
10020
 60
    7
 61
    5
292
1
282
    1
141
0
142
0
 63
  250
421
3358443
  0
ENDTAB
  0
TABLE
  2
LTYPE
  5
5
330
0
100
AcDbSymbolTable
 70
    4
  0
LTYPE
  5
14
330
5
100
AcDbSymbolTableRecord
100
AcDbLinetypeTableRecord
  2
ByBlock
 70
    0
  3

 72
   65
 73
    0
 40
0
  0
LTYPE
  5
15
330
5
100
AcDbSymbolTableRecord
100
AcDbLinetypeTableRecord
  2
ByLayer
 70
    0
  3

 72
   65
 73
    0
 40
0
  0
LTYPE
  5
16
330
5
100
AcDbSymbolTableRecord
100
AcDbLinetypeTableRecord
  2
Continuous
 70
    0
  3
Solid line
 72
   65
 73
    0
 40
0
  0
LTYPE
  5
32
330
5
100
AcDbSymbolTableRecord
100
AcDbLinetypeTableRecord
  2
DOT
 70
    0
  3
Dot . . . . . . . . . . . . . . . . . . . . . .
 72
   65
 73
    2
 40
6.35
 49
0
 74
    0
 49
-6.35
 74
    0
  0
LTYPE
  5
33
330
5
100
AcDbSymbolTableRecord
100
AcDbLinetypeTableRecord
  2
DOTTINY
 70
    0
  3
Dot (.15x) .....................................
 72
   65
 73
    2
 40
0.9525
 49
0
 74
    0
 49
-0.9525
 74
    0
  0
LTYPE
  5
34
330
5
100
AcDbSymbolTableRecord
100
AcDbLinetypeTableRecord
  2
DOT2
 70
    0
  3
Dot (.5x) .....................................
 72
   65
 73
    2
 40
3.175
 49
0
 74
    0
 49
-3.175
 74
    0
  0
LTYPE
  5
35
330
5
100
AcDbSymbolTableRecord
100
AcDbLinetypeTableRecord
  2
DOTX2
 70
    0
  3
Dot (2x) .  .  .  .  .  .  .  .  .  .  .  .  .
 72
   65
 73
    2
 40
12.7
 49
0
 74
    0
 49
-12.7
 74
    0
  0
LTYPE
  5
36
330
5
100
AcDbSymbolTableRecord
100
AcDbLinetypeTableRecord
  2
DASHED
 70
    0
  3
Dashed _ _ _ _ _ _ _ _ _ _ _ _ _ _ _ _ _
 72
   65
 73
    2
 40
19.05
 49
12.7
 74
    0
 49
-6.35
 74
    0
  0
LTYPE
  5
37
330
5
100
AcDbSymbolTableRecord
100
AcDbLinetypeTableRecord
  2
DASHEDTINY
 70
    0
  3
Dashed (.15x) _ _ _ _ _ _ _ _ _ _ _ _ _ _ _ _ _
 72
   65
 73
    2
 40
2.8575
 49
1.905
 74
    0
 49
-0.9525
 74
    0
  0
LTYPE
  5
38
330
5
100
AcDbSymbolTableRecord
100
AcDbLinetypeTableRecord
  2
DASHED2
 70
    0
  3
Dashed (.5x) _ _ _ _ _ _ _ _ _ _ _ _ _ _ _ _ _
 72
   65
 73
    2
 40
9.524999999999999
 49
6.35
 74
    0
 49
-3.175
 74
    0
  0
LTYPE
  5
39
330
5
100
AcDbSymbolTableRecord
100
AcDbLinetypeTableRecord
  2
DASHEDX2
 70
    0
  3
Dashed (2x) ____  ____  ____  ____  ____  ___
 72
   65
 73
    2
 40
38.09999999999999
 49
25.4
 74
    0
 49
-12.7
 74
    0
  0
LTYPE
  5
3A
330
5
100
AcDbSymbolTableRecord
100
AcDbLinetypeTableRecord
  2
DASHDOT
 70
    0
  3
Dash dot __ . __ . __ . __ . __ . __ . __ . __
 72
   65
 73
    4
 40
25.4
 49
12.7
 74
    0
 49
-6.35
 74
    0
 49
0
 74
    0
 49
-6.35
 74
    0
  0
LTYPE
  5
3B
330
5
100
AcDbSymbolTableRecord
100
AcDbLinetypeTableRecord
  2
DASHDOTTINY
 70
    0
  3
Dash dot (.15x) _._._._._._._._._._._._._._._.
 72
   65
 73
    4
 40
3.81
 49
1.905
 74
    0
 49
-0.9525
 74
    0
 49
0
 74
    0
 49
-0.9525
 74
    0
  0
LTYPE
  5
3C
330
5
100
AcDbSymbolTableRecord
100
AcDbLinetypeTableRecord
  2
DASHDOT2
 70
    0
  3
Dash dot (.5x) _._._._._._._._._._._._._._._.
 72
   65
 73
    4
 40
12.7
 49
6.35
 74
    0
 49
-3.175
 74
    0
 49
0
 74
    0
 49
-3.175
 74
    0
  0
LTYPE
  5
3D
330
5
100
AcDbSymbolTableRecord
100
AcDbLinetypeTableRecord
  2
DASHDOTX2
 70
    0
  3
Dash dot (2x) ____  .  ____  .  ____  .  ___
 72
   65
 73
    4
 40
50.8
 49
25.4
 74
    0
 49
-12.7
 74
    0
 49
0
 74
    0
 49
-12.7
 74
    0
  0
LTYPE
  5
3E
330
5
100
AcDbSymbolTableRecord
100
AcDbLinetypeTableRecord
  2
DIVIDE
 70
    0
  3
Divide ____ . . ____ . . ____ . . ____ . . ____
 72
   65
 73
    6
 40
31.75
 49
12.7
 74
    0
 49
-6.35
 74
    0
 49
0
 74
    0
 49
-6.35
 74
    0
 49
0
 74
    0
 49
-6.35
 74
    0
  0
LTYPE
  5
3F
330
5
100
AcDbSymbolTableRecord
100
AcDbLinetypeTableRecord
  2
DIVIDETINY
 70
    0
  3
Divide (.15x) __..__..__..__..__..__..__..__.._
 72
   65
 73
    6
 40
4.7625
 49
1.905
 74
    0
 49
-0.9525
 74
    0
 49
0
 74
    0
 49
-0.9525
 74
    0
 49
0
 74
    0
 49
-0.9525
 74
    0
  0
LTYPE
  5
40
330
5
100
AcDbSymbolTableRecord
100
AcDbLinetypeTableRecord
  2
DIVIDE2
 70
    0
  3
Divide (.5x) __..__..__..__..__..__..__..__.._
 72
   65
 73
    6
 40
15.875
 49
6.35
 74
    0
 49
-3.175
 74
    0
 49
0
 74
    0
 49
-3.175
 74
    0
 49
0
 74
    0
 49
-3.175
 74
    0
  0
LTYPE
  5
41
330
5
100
AcDbSymbolTableRecord
100
AcDbLinetypeTableRecord
  2
DIVIDEX2
 70
    0
  3
Divide (2x) ________  .  .  ________  .  .  _
 72
   65
 73
    6
 40
63.5
 49
25.4
 74
    0
 49
-12.7
 74
    0
 49
0
 74
    0
 49
-12.7
 74
    0
 49
0
 74
    0
 49
-12.7
 74
    0
  0
LTYPE
  5
42
330
5
100
AcDbSymbolTableRecord
100
AcDbLinetypeTableRecord
  2
BORDER
 70
    0
  3
Border __ __ . __ __ . __ __ . __ __ . __ __ .
 72
   65
 73
    6
 40
44.45
 49
12.7
 74
    0
 49
-6.35
 74
    0
 49
12.7
 74
    0
 49
-6.35
 74
    0
 49
0
 74
    0
 49
-6.35
 74
    0
  0
LTYPE
  5
43
330
5
100
AcDbSymbolTableRecord
100
AcDbLinetypeTableRecord
  2
BORDERTINY
 70
    0
  3
Border (.15x) __.__.__.__.__.__.__.__.__.__.__.
 72
   65
 73
    6
 40
6.6675
 49
1.905
 74
    0
 49
-0.9525
 74
    0
 49
1.905
 74
    0
 49
-0.9525
 74
    0
 49
0
 74
    0
 49
-0.9525
 74
    0
  0
LTYPE
  5
44
330
5
100
AcDbSymbolTableRecord
100
AcDbLinetypeTableRecord
  2
BORDER2
 70
    0
  3
Border (.5x) __.__.__.__.__.__.__.__.__.__.__.
 72
   65
 73
    6
 40
22.225
 49
6.35
 74
    0
 49
-3.175
 74
    0
 49
6.35
 74
    0
 49
-3.175
 74
    0
 49
0
 74
    0
 49
-3.175
 74
    0
  0
LTYPE
  5
45
330
5
100
AcDbSymbolTableRecord
100
AcDbLinetypeTableRecord
  2
BORDERX2
 70
    0
  3
Border (2x) ____  ____  .  ____  ____  .  ___
 72
   65
 73
    6
 40
88.89999999999999
 49
25.4
 74
    0
 49
-12.7
 74
    0
 49
25.4
 74
    0
 49
-12.7
 74
    0
 49
0
 74
    0
 49
-12.7
 74
    0
  0
LTYPE
  5
46
330
5
100
AcDbSymbolTableRecord
100
AcDbLinetypeTableRecord
  2
CENTER
 70
    0
  3
Center ____ _ ____ _ ____ _ ____ _ ____ _ ____
 72
   65
 73
    4
 40
50.8
 49
31.75
 74
    0
 49
-6.35
 74
    0
 49
6.35
 74
    0
 49
-6.35
 74
    0
  0
LTYPE
  5
47
330
5
100
AcDbSymbolTableRecord
100
AcDbLinetypeTableRecord
  2
CENTERTINY
 70
    0
  3
Center (.15x) ___ _ ___ _ ___ _ ___ _ ___ _ ___
 72
   65
 73
    4
 40
7.619999999999999
 49
4.7625
 74
    0
 49
-0.9525
 74
    0
 49
0.9525
 74
    0
 49
-0.9525
 74
    0
  0
LTYPE
  5
48
330
5
100
AcDbSymbolTableRecord
100
AcDbLinetypeTableRecord
  2
CENTER2
 70
    0
  3
Center (.5x) ___ _ ___ _ ___ _ ___ _ ___ _ ___
 72
   65
 73
    4
 40
28.575
 49
19.05
 74
    0
 49
-3.175
 74
    0
 49
3.175
 74
    0
 49
-3.175
 74
    0
  0
LTYPE
  5
49
330
5
100
AcDbSymbolTableRecord
100
AcDbLinetypeTableRecord
  2
CENTERX2
 70
    0
  3
Center (2x) ________  __  ________  __  _____
 72
   65
 73
    4
 40
101.6
 49
63.5
 74
    0
 49
-12.7
 74
    0
 49
12.7
 74
    0
 49
-12.7
 74
    0
  0
ENDTAB
  0
TABLE
  2
LAYER
  5
2
330
0
100
AcDbSymbolTable
 70
    1
  0
LAYER
  5
10
330
2
100
AcDbSymbolTableRecord
100
AcDbLayerTableRecord
  2
0
 70
    5
 62
    7
  6
CONTINUOUS
370
   -3
390
F
  0
LAYER
  5
4A
330
2
100
AcDbSymbolTableRecord
100
AcDbLayerTableRecord
  2
120mm_fan-Mounting_hole_pattern
 70
    5
 62
    7
  6
CONTINUOUS
370
   -3
390
F
  0
LAYER
  5
4B
330
2
100
AcDbSymbolTableRecord
100
AcDbLayerTableRecord
  2
filters
 70
    5
 62
    7
  6
CONTINUOUS
370
    0
390
F
  0
LAYER
  5
4C
330
2
100
AcDbSymbolTableRecord
100
AcDbLayerTableRecord
  2
lengths
 70
    5
 62
    7
  6
CONTINUOUS
370
    0
390
F
  0
LAYER
  5
4D
330
2
100
AcDbSymbolTableRecord
100
AcDbLayerTableRecord
  2
measurements
 70
    5
 62
    7
  6
CONTINUOUS
370
    0
390
F
  0
LAYER
  5
4E
330
2
100
AcDbSymbolTableRecord
100
AcDbLayerTableRecord
  2
paaltjes
 70
    5
 62
    7
  6
CONTINUOUS
370
    0
390
F
  0
LAYER
  5
4F
330
2
100
AcDbSymbolTableRecord
100
AcDbLayerTableRecord
  2
screw holes fans
 70
    0
 62
    6
  6
CONTINUOUS
370
   13
390
F
  0
LAYER
  5
50
330
2
100
AcDbSymbolTableRecord
100
AcDbLayerTableRecord
  2
top plaat
 70
    4
 62
   16
420
8388608
  6
CONTINUOUS
370
    0
390
F
  0
LAYER
  5
51
330
2
100
AcDbSymbolTableRecord
100
AcDbLayerTableRecord
  2
vierkant
 70
    4
 62
    7
  6
CONTINUOUS
370
    0
390
F
  0
ENDTAB
  0
TABLE
  2
STYLE
  5
3
330
0
100
AcDbSymbolTable
 70
    3
  0
STYLE
  5
52
330
2
100
AcDbSymbolTableRecord
100
AcDbTextStyleTableRecord
  2
Standard
 70
    0
 40
0
 41
1
 50
0
 71
    0
 42
1
  3
txt
  4

  0
ENDTAB
  0
TABLE
  2
VIEW
  5
6
330
0
100
AcDbSymbolTable
 70
    0
  0
ENDTAB
  0
TABLE
  2
UCS
  5
7
330
0
100
AcDbSymbolTable
 70
    0
  0
ENDTAB
  0
TABLE
  2
APPID
  5
9
330
0
100
AcDbSymbolTable
 70
    1
  0
APPID
  5
12
330
9
100
AcDbSymbolTableRecord
100
AcDbRegAppTableRecord
  2
ACAD
 70
    0
  0
APPID
  5
53
330
9
100
AcDbSymbolTableRecord
100
AcDbRegAppTableRecord
  2
LibreCad
 70
    0
  0
ENDTAB
  0
TABLE
  2
DIMSTYLE
  5
A
330
0
100
AcDbSymbolTable
 70
    1
100
AcDbDimStyleTable
 71
    1
  0
DIMSTYLE
105
54
330
A
100
AcDbSymbolTableRecord
100
AcDbDimStyleTableRecord
  2
Standard
 70
    0
 40
1
 41
2.5
 42
0.625
 43
0.38
 44
1.25
 45
0
 46
0
 47
0
 48
0
 49
1
140
2.5
141
0.09
142
0
143
25.4
144
1
145
0
146
1
147
0.625
148
0
 71
    0
 72
    0
 73
    0
 74
    1
 75
    0
 76
    0
 77
    0
 78
    8
 79
    0
170
    0
171
    2
172
    0
173
    0
174
    0
175
    0
176
    0
177
    0
178
    0
179
    0
271
    2
272
    4
273
    2
274
    2
275
    0
276
    0
277
    2
278
   44
279
    0
280
    0
281
    0
282
    0
283
    1
284
    0
285
    0
286
    0
288
    0
289
    3
340
standard
341

371
   -2
372
   -2
  0
ENDTAB
  0
TABLE
  2
BLOCK_RECORD
  5
1
330
0
100
AcDbSymbolTable
 70
    2
  0
BLOCK_RECORD
  5
1F
330
1
100
AcDbSymbolTableRecord
100
AcDbBlockTableRecord
  2
*Model_Space
 70
    0
280
    1
281
    0
  0
BLOCK_RECORD
  5
1E
330
1
100
AcDbSymbolTableRecord
100
AcDbBlockTableRecord
  2
*Paper_Space
 70
    0
280
    1
281
    0
  0
BLOCK_RECORD
  5
55
330
1
100
AcDbSymbolTableRecord
100
AcDbBlockTableRecord
  2
*D1
 70
    0
280
    1
281
    0
  0
BLOCK_RECORD
  5
58
330
1
100
AcDbSymbolTableRecord
100
AcDbBlockTableRecord
  2
*D4
 70
    0
280
    1
281
    0
  0
BLOCK_RECORD
  5
5B
330
1
100
AcDbSymbolTableRecord
100
AcDbBlockTableRecord
  2
*D3
 70
    0
280
    1
281
    0
  0
BLOCK_RECORD
  5
5E
330
1
100
AcDbSymbolTableRecord
100
AcDbBlockTableRecord
  2
*D5
 70
    0
280
    1
281
    0
  0
BLOCK_RECORD
  5
61
330
1
100
AcDbSymbolTableRecord
100
AcDbBlockTableRecord
  2
*D6
 70
    0
280
    1
281
    0
  0
BLOCK_RECORD
  5
64
330
1
100
AcDbSymbolTableRecord
100
AcDbBlockTableRecord
  2
*D2
 70
    0
280
    1
281
    0
  0
BLOCK_RECORD
  5
67
330
1
100
AcDbSymbolTableRecord
100
AcDbBlockTableRecord
  2
fan
 70
    0
280
    1
281
    0
  0
ENDTAB
  0
ENDSEC
  0
SECTION
  2
BLOCKS
  0
BLOCK
  5
20
330
1F
100
AcDbEntity
  8
0
100
AcDbBlockBegin
  2
*Model_Space
 70
    0
 10
0
 20
0
 30
0
  3
*Model_Space
  1

  0
ENDBLK
  5
21
330
1F
100
AcDbEntity
  8
0
100
AcDbBlockEnd
  0
BLOCK
  5
1C
330
1B
100
AcDbEntity
  8
0
100
AcDbBlockBegin
  2
*Paper_Space
 70
    0
 10
0
 20
0
 30
0
  3
*Paper_Space
  1

  0
ENDBLK
  5
1D
330
1F
100
AcDbEntity
  8
0
100
AcDbBlockEnd
  0
BLOCK
  5
56
330
55
100
AcDbEntity
  8
0
100
AcDbBlockBegin
  2
*D1
 70
    1
 10
0
 20
0
  3
*D1
  1

  0
LINE
  5
6A
100
AcDbEntity
  8
lengths
  6
ByBlock
 62
    0
370
   -2
100
AcDbLine
 10
155.9174805034495
 20
136.7463866435681
 11
441.9190782742907
 21
136.7463866435681
  0
SOLID
  5
6B
100
AcDbEntity
  8
lengths
  6
ByBlock
 62
    0
370
   -2
100
AcDbTrace
 10
155.9174805034495
 20
136.7463866435681
 30
0
 11
158.4174805034495
 21
137.1626713013409
 31
0
 12
158.4174805034495
 22
136.3301019857952
 32
0
 13
158.4174805034495
 23
136.3301019857952
 33
0
  0
SOLID
  5
6C
100
AcDbEntity
  8
lengths
  6
ByBlock
 62
    0
370
   -2
100
AcDbTrace
 10
441.9190782742907
 20
136.7463866435681
 30
0
 11
439.4190782742907
 21
136.3301019857952
 31
0
 12
439.4190782742907
 22
137.1626713013409
 32
0
 13
439.4190782742907
 23
137.1626713013409
 33
0
  0
MTEXT
  5
6D
100
AcDbEntity
  8
lengths
  6
CONTINUOUS
 62
    0
370
   -2
100
AcDbMText
 10
298.9182793888701
 20
138.6213866435681
 30
0
 40
2.5
 41
5.000000000000156
 71
    5
 72
    1
  1
286
  7
standard
210
0
220
0
230
1
 50
0
 73
    2
 44
1
  0
LINE
  5
6E
100
AcDbEntity
  8
lengths
  6
ByBlock
 62
    0
370
   -2
100
AcDbLine
 10
155.9174805034495
 20
137.3713866435681
 11
155.9174805034495
 21
137.9963866435681
  0
LINE
  5
6F
100
AcDbEntity
  8
lengths
  6
ByBlock
 62
    0
370
   -2
100
AcDbLine
 10
441.9190782742907
 20
137.3713866435682
 11
441.9190782742907
 21
137.9963866435681
  0
ENDBLK
  5
57
330
55
100
AcDbEntity
  8
0
100
AcDbBlockEnd
  0
BLOCK
  5
59
330
58
100
AcDbEntity
  8
0
100
AcDbBlockBegin
  2
*D4
 70
    1
 10
0
 20
0
  3
*D4
  1

  0
LINE
  5
70
100
AcDbEntity
  8
measurements
  6
ByBlock
 62
    0
370
   -2
100
AcDbLine
 10
273.8988198294718
 20
294.7705747490098
 11
273.8988198294718
 21
264.7705786403004
  0
SOLID
  5
71
100
AcDbEntity
  8
measurements
  6
ByBlock
 62
    0
370
   -2
100
AcDbTrace
 10
273.8988198294718
 20
294.7705747490098
 30
0
 11
274.3151044872446
 21
292.2705747490098
 31
0
 12
273.4825351716989
 22
292.2705747490098
 32
0
 13
273.4825351716989
 23
292.2705747490098
 33
0
  0
SOLID
  5
72
100
AcDbEntity
  8
measurements
  6
ByBlock
 62
    0
370
   -2
100
AcDbTrace
 10
273.8988198294718
 20
264.7705786403004
 30
0
 11
273.4825351716989
 21
267.2705786403004
 31
0
 12
274.3151044872446
 22
267.2705786403004
 32
0
 13
274.3151044872446
 23
267.2705786403004
 33
0
  0
MTEXT
  5
73
100
AcDbEntity
  8
measurements
  6
CONTINUOUS
 62
    0
370
   -2
100
AcDbMText
 10
272.0238198294718
 20
279.7705766946551
 30
0
 40
2.5
 41
3.055555555555711
 71
    5
 72
    1
  1
30
  7
standard
210
0
220
0
230
1
 50
90
 73
    2
 44
1
  0
LINE
  5
74
100
AcDbEntity
  8
measurements
  6
ByBlock
 62
    0
370
   -2
100
AcDbLine
 10
263.2356103030628
 20
294.7705747490098
 11
275.1488198294718
 21
294.7705747490098
  0
LINE
  5
75
100
AcDbEntity
  8
measurements
  6
ByBlock
 62
    0
370
   -2
100
AcDbLine
 10
264.0875506446786
 20
264.7705786403004
 11
275.1488198294718
 21
264.7705786403004
  0
ENDBLK
  5
5A
330
58
100
AcDbEntity
  8
0
100
AcDbBlockEnd
  0
BLOCK
  5
5C
330
5B
100
AcDbEntity
  8
0
100
AcDbBlockBegin
  2
*D3
 70
    1
 10
0
 20
0
  3
*D3
  1

  0
LINE
  5
76
100
AcDbEntity
  8
lengths
  6
ByBlock
 62
    0
370
   -2
100
AcDbLine
 10
138.3065672911758
 20
422.7479844144092
 11
138.3065672911758
 21
136.7463866435681
  0
SOLID
  5
77
100
AcDbEntity
  8
lengths
  6
ByBlock
 62
    0
370
   -2
100
AcDbTrace
 10
138.3065672911758
 20
422.7479844144092
 30
0
 11
138.7228519489487
 21
420.2479844144092
 31
0
 12
137.890282633403
 22
420.2479844144092
 32
0
 13
137.890282633403
 23
420.2479844144092
 33
0
  0
SOLID
  5
78
100
AcDbEntity
  8
lengths
  6
ByBlock
 62
    0
370
   -2
100
AcDbTrace
 10
138.3065672911758
 20
136.7463866435681
 30
0
 11
137.890282633403
 21
139.2463866435681
 31
0
 12
138.7228519489487
 22
139.2463866435681
 32
0
 13
138.7228519489487
 23
139.2463866435681
 33
0
  0
MTEXT
  5
79
100
AcDbEntity
  8
lengths
  6
CONTINUOUS
 62
    0
370
   -2
100
AcDbMText
 10
136.4315672911758
 20
279.7471855289887
 30
0
 40
2.5
 41
5.000000000000156
 71
    5
 72
    1
  1
286
  7
standard
210
0
220
0
230
1
 50
90
 73
    2
 44
1
  0
LINE
  5
7A
100
AcDbEntity
  8
lengths
  6
ByBlock
 62
    0
370
   -2
100
AcDbLine
 10
137.78616420118
 20
422.7479844144092
 11
137.0565672911758
 21
422.7479844144092
  0
LINE
  5
7B
100
AcDbEntity
  8
lengths
  6
ByBlock
 62
    0
370
   -2
100
AcDbLine
 10
137.78616420118
 20
136.7463866435681
 11
137.0565672911758
 21
136.7463866435681
  0
ENDBLK
  5
5D
330
5B
100
AcDbEntity
  8
0
100
AcDbBlockEnd
  0
BLOCK
  5
5F
330
5E
100
AcDbEntity
  8
0
100
AcDbBlockBegin
  2
*D5
 70
    1
 10
0
 20
0
  3
*D5
  1

  0
LINE
  5
7C
100
AcDbEntity
  8
measurements
  6
ByBlock
 62
    0
370
   -2
100
AcDbLine
 10
283.8982506456208
 20
248.3406095809985
 11
313.8982545144714
 21
248.3406095809985
  0
SOLID
  5
7D
100
AcDbEntity
  8
measurements
  6
ByBlock
 62
    0
370
   -2
100
AcDbTrace
 10
283.8982506456208
 20
248.3406095809985
 30
0
 11
286.3982506456208
 21
248.7568942387714
 31
0
 12
286.3982506456208
 22
247.9243249232257
 32
0
 13
286.3982506456208
 23
247.9243249232257
 33
0
  0
SOLID
  5
7E
100
AcDbEntity
  8
measurements
  6
ByBlock
 62
    0
370
   -2
100
AcDbTrace
 10
313.8982545144714
 20
248.3406095809985
 30
0
 11
311.3982545144714
 21
247.9243249232257
 31
0
 12
311.3982545144714
 22
248.7568942387714
 32
0
 13
311.3982545144714
 23
248.7568942387714
 33
0
  0
MTEXT
  5
7F
100
AcDbEntity
  8
measurements
  6
CONTINUOUS
 62
    0
370
   -2
100
AcDbMText
 10
298.8982525800461
 20
250.2156095809985
 30
0
 40
2.5
 41
3.055555555555711
 71
    5
 72
    1
  1
30
  7
standard
210
0
220
0
230
1
 50
0
 73
    2
 44
1
  0
LINE
  5
80
100
AcDbEntity
  8
measurements
  6
ByBlock
 62
    0
370
   -2
100
AcDbLine
 10
283.8982506456208
 20
243.6409824458999
 11
283.8982506456208
 21
249.5906095809985
  0
LINE
  5
81
100
AcDbEntity
  8
measurements
  6
ByBlock
 62
    0
370
   -2
100
AcDbLine
 10
313.8982545144714
 20
242.7890421042842
 11
313.8982545144714
 21
249.5906095809985
  0
ENDBLK
  5
60
330
5E
100
AcDbEntity
  8
0
100
AcDbBlockEnd
  0
BLOCK
  5
62
330
61
100
AcDbEntity
  8
0
100
AcDbBlockBegin
  2
*D6
 70
    1
 10
0
 20
0
  3
*D6
  1

  0
LINE
  5
82
100
AcDbEntity
  8
measurements
  6
ByBlock
 62
    0
370
   -2
100
AcDbLine
 10
155.9174805034495
 20
314.3659860562211
 11
163.8982545144714
 21
314.3659860562211
  0
SOLID
  5
83
100
AcDbEntity
  8
measurements
  6
ByBlock
 62
    0
370
   -2
100
AcDbTrace
 10
155.9174805034495
 20
314.3659860562211
 30
0
 11
158.4174805034495
 21
314.782270713994
 31
0
 12
158.4174805034495
 22
313.9497013984483
 32
0
 13
158.4174805034495
 23
313.9497013984483
 33
0
  0
SOLID
  5
84
100
AcDbEntity
  8
measurements
  6
ByBlock
 62
    0
370
   -2
100
AcDbTrace
 10
163.8982545144714
 20
314.3659860562211
 30
0
 11
161.3982545144714
 21
313.9497013984483
 31
0
 12
161.3982545144714
 22
314.782270713994
 32
0
 13
161.3982545144714
 23
314.782270713994
 33
0
  0
MTEXT
  5
85
100
AcDbEntity
  8
measurements
  6
CONTINUOUS
 62
    0
370
   -2
100
AcDbMText
 10
159.9078675089604
 20
316.2409860562211
 30
0
 40
2.5
 41
5.972222222222222
 71
    5
 72
    1
  1
7,98
  7
standard
210
0
220
0
230
1
 50
0
 73
    2
 44
1
  0
LINE
  5
86
100
AcDbEntity
  8
measurements
  6
ByBlock
 62
    0
370
   -2
100
AcDbLine
 10
155.9174805034495
 20
312.0091948605659
 11
155.9174805034495
 21
315.6159860562211
  0
LINE
  5
87
100
AcDbEntity
  8
measurements
  6
ByBlock
 62
    0
370
   -2
100
AcDbLine
 10
163.8982545144714
 20
311.583224689758
 11
163.8982545144714
 21
315.6159860562211
  0
ENDBLK
  5
63
330
61
100
AcDbEntity
  8
0
100
AcDbBlockEnd
  0
BLOCK
  5
65
330
64
100
AcDbEntity
  8
0
100
AcDbBlockBegin
  2
*D2
 70
    1
 10
0
 20
0
  3
*D2
  1

  0
LINE
  5
88
100
AcDbEntity
  8
lengths
  6
ByBlock
 62
    0
370
   -2
100
AcDbLine
 10
321.8982545144713
 20
362.7705766946552
 11
441.8982506456207
 21
362.7705766946552
  0
SOLID
  5
89
100
AcDbEntity
  8
lengths
  6
ByBlock
 62
    0
370
   -2
100
AcDbTrace
 10
321.8982545144713
 20
362.7705766946552
 30
0
 11
324.3982545144713
 21
363.186861352428
 31
0
 12
324.3982545144713
 22
362.3542920368823
 32
0
 13
324.3982545144713
 23
362.3542920368823
 33
0
  0
SOLID
  5
8A
100
AcDbEntity
  8
lengths
  6
ByBlock
 62
    0
370
   -2
100
AcDbTrace
 10
441.8982506456207
 20
362.7705766946552
 30
0
 11
439.3982506456207
 21
362.3542920368823
 31
0
 12
439.3982506456207
 22
363.186861352428
 32
0
 13
439.3982506456207
 23
363.186861352428
 33
0
  0
MTEXT
  5
8B
100
AcDbEntity
  8
lengths
  6
CONTINUOUS
 62
    0
370
   -2
100
AcDbMText
 10
381.898252580046
 20
364.6455766946552
 30
0
 40
2.5
 41
4.444444444444445
 71
    5
 72
    1
  1
120
  7
standard
210
0
220
0
230
1
 50
0
 73
    2
 44
1
  0
LINE
  5
8C
100
AcDbEntity
  8
lengths
  6
ByBlock
 62
    0
370
   -2
100
AcDbLine
 10
321.8982545144713
 20
363.3955754600873
 11
321.8982545144713
 21
364.0205766946552
  0
LINE
  5
8D
100
AcDbEntity
  8
lengths
  6
ByBlock
 62
    0
370
   -2
100
AcDbLine
 10
441.8982506456207
 20
363.3955766946552
 11
441.8982506456207
 21
364.0205766946552
  0
ENDBLK
  5
66
330
64
100
AcDbEntity
  8
0
100
AcDbBlockEnd
  0
BLOCK
  5
68
330
67
100
AcDbEntity
  8
0
100
AcDbBlockBegin
  2
fan
 70
    0
 10
0
 20
0
  3
fan
  1

  0
LWPOLYLINE
  5
8E
100
AcDbEntity
  8
120mm_fan-Mounting_hole_pattern
  6
ByLayer
 62
    7
370
   -1
100
AcDbPolyline
 90
    2
 70
    0
 43
0
 10
-59.28115047473443
 20
-58.25800157469621
 10
-59.28115047473443
 20
51.75258185710658
  0
LWPOLYLINE
  5
8F
100
AcDbEntity
  8
120mm_fan-Mounting_hole_pattern
  6
ByLayer
 62
    7
370
   -1
100
AcDbPolyline
 90
    2
 70
    0
 43
0
 10
55.72414195224439
 20
-63.25271056987225
 10
-54.2864418322921
 20
-63.25271056987225
  0
LWPOLYLINE
  5
90
100
AcDbEntity
  8
120mm_fan-Mounting_hole_pattern
  6
ByLayer
 62
    7
370
   -1
100
AcDbPolyline
 90
    2
 70
    0
 43
0
 10
-51.74675893963843
 20
49.25522453764899
 10
-51.74675893963843
 20
47.30813988138226
  0
LWPOLYLINE
  5
91
100
AcDbEntity
  8
120mm_fan-Mounting_hole_pattern
  6
ByLayer
 62
    7
370
   -1
100
AcDbPolyline
 90
    2
 70
    0
 43
0
 10
-51.74675893963843
 20
46.54623265027044
 10
-51.74675893963843
 20
45.78432788829446
  0
LWPOLYLINE
  5
92
100
AcDbEntity
  8
120mm_fan-Mounting_hole_pattern
  6
ByLayer
 62
    7
370
   -1
100
AcDbPolyline
 90
    2
 70
    0
 43
0
 10
60.718845656415
 20
51.75258185710658
 10
60.718845656415
 20
-58.25799910556043
  0
LWPOLYLINE
  5
93
100
AcDbEntity
  8
120mm_fan-Mounting_hole_pattern
  6
ByLayer
 62
    7
370
   -1
100
AcDbPolyline
 90
    2
 70
    0
 43
0
 10
-54.28643901042261
 20
56.74729332141828
 10
55.72413383936959
 20
56.74729332141828
  0
LWPOLYLINE
  5
94
100
AcDbEntity
  8
120mm_fan-Mounting_hole_pattern
  6
ByLayer
 62
    7
370
   -1
100
AcDbPolyline
 90
  116
 70
    1
 43
0
 10
58.68710491548427
 20
-3.273873879960945
 10
58.60244883082026
 20
-0.09927070506086011
 10
58.34848057682831
 20
3.033004427507194
 10
57.9252001535084
 20
6.122951517743161
 10
57.33260756086037
 20
9.212898960712891
 10
56.57070279888427
 20
12.26051800861688
 10
55.68181390991236
 20
15.26580936692244
 10
54.58128480928036
 20
18.22877162469518
 10
53.35377158165227
 20
21.10707991420588
 10
51.95694583196257
 20
23.90072964991674
 10
50.39080826567857
 20
26.65205240149675
 10
48.69768727786601
 20
29.27639102608089
 10
46.8775811048564
 20
31.85840160833288
 10
44.9304911575843
 20
34.27110002125676
 10
42.81408868825071
 20
36.64147039184888
 10
40.6130304869867
 20
38.84252859311289
 10
38.2426604691284
 20
40.95893070971289
 10
35.82996135073699
 20
42.90602065698488
 10
33.24795006301758
 20
44.72612682999448
 10
30.62361249663456
 20
46.41924852327458
 10
27.87228974505456
 20
47.98538326768909
 10
25.07863895114269
 20
49.38220866464508
 10
22.20033207256665
 20
50.60972189227294
 10
19.2373715784625
 20
51.71025381477449
 10
16.232077751021
 20
52.64147074607848
 10
13.184458703117
 20
53.36104746572249
 10
10.09451443475047
 20
53.95364252750625
 10
7.004564522644955
 20
54.37692048169049
 10
3.872289390076958
 20
54.63088873568245
 10
0.6976862151768728
 20
54.75787286267848
 10
-2.434586448255232
 20
54.63088873568245
 10
-5.566864049959008
 20
54.37692048169049
 10
-8.656811140195032
 20
53.95364252750625
 10
-11.74675576129522
 20
53.36104746572249
 10
-14.79438010020453
 20
52.64147074607848
 10
-17.79966863664072
 20
51.71025381477449
 10
-20.76263406901654
 20
50.60972189227294
 10
-23.64094094759253
 20
49.38220866464508
 10
-26.43459209423821
 20
47.98538326768909
 10
-29.18591202394873
 20
46.41924852327458
 10
-31.81024817939692
 20
44.72612682999448
 10
-34.3922612307847
 20
42.90602065698488
 10
-36.80495717457291
 20
40.95893070971289
 10
-39.17533283617024
 20
38.84252859311289
 10
-41.37638574642892
 20
36.64147039184888
 10
-43.49278786302892
 20
34.27110002125676
 10
-45.43988310130624
 20
31.85840160833288
 10
-47.25998892158219
 20
29.27639102608089
 10
-48.95310814572645
 20
26.65205240149675
 10
-50.5192428901409
 20
23.90072964991674
 10
-51.91606828709689
 20
21.10707991420588
 10
-53.14358433659442
 20
18.22877162469518
 10
-54.24411343722642
 20
15.26580936692244
 10
-55.1329998570626
 20
12.26051800861688
 10
-55.89490708817442
 20
9.212898960712891
 10
-56.48749721168662
 20
6.122951517743161
 10
-56.91077763500664
 20
3.033004427507194
 10
-57.16475118000392
 20
-0.09927070506086011
 10
-57.2494019736626
 20
-3.273873879960945
 10
-57.16475118000392
 20
-6.406149012528942
 10
-56.91077763500664
 20
-9.53842414509694
 10
-56.48749721168662
 20
-12.62837158806656
 10
-55.89490708817442
 20
-15.71831867830252
 10
-55.1329998570626
 20
-18.76593772620652
 10
-54.24411343722642
 20
-21.77122802631112
 10
-53.14358433659442
 20
-24.73419240048594
 10
-51.91606828709689
 20
-27.61249857359451
 10
-50.5192428901409
 20
-30.40614936750654
 10
-48.95310814572645
 20
-33.15747211908655
 10
-47.25998892158219
 20
-35.78181074367052
 10
-45.43988310130624
 20
-38.36382132592252
 10
-43.49278786302892
 20
-40.81884813391224
 10
-41.37638574642892
 20
-43.14689046217222
 10
-39.17533283617024
 20
-45.34794584156674
 10
-36.80495717457291
 20
-47.46434795816674
 10
-34.3922612307847
 20
-49.41143790543873
 10
-31.81024817939692
 20
-51.2738745899162
 10
-29.18591202394873
 20
-52.96699628319624
 10
-26.43459209423821
 20
-54.49080862901775
 10
-23.64094094759253
 20
-55.88763120410425
 10
-20.76263406901654
 20
-57.11514443173223
 10
-17.79966863664072
 20
-58.21567106322846
 10
-14.79438010020453
 20
-59.14689046366823
 10
-11.74675576129522
 20
-59.90879522564421
 10
-8.656811140195032
 20
-60.50139064016173
 10
-5.566864049959008
 20
-60.92466824161221
 10
-2.434586448255232
 20
-61.17863649560422
 10
0.6976862151768728
 20
-61.26329258026823
 10
3.872289390076958
 20
-61.17863649560422
 10
7.004564522644955
 20
-60.92466824161221
 10
10.09451443475047
 20
-60.50139064016173
 10
13.184458703117
 20
-59.90879522564421
 10
16.232077751021
 20
-59.14689046366823
 10
19.2373715784625
 20
-58.21567106322846
 10
22.20033207256665
 20
-57.11514443173223
 10
25.07863895114269
 20
-55.88763120410425
 10
27.87228974505456
 20
-54.49080862901775
 10
30.62361249663456
 20
-52.96699628319624
 10
33.24795006301758
 20
-51.2738745899162
 10
35.82996135073699
 20
-49.41143790543873
 10
38.2426604691284
 20
-47.46434795816674
 10
40.6130304869867
 20
-45.34794584156674
 10
42.81408868825071
 20
-43.14689046217222
 10
44.9304911575843
 20
-40.81884813391224
 10
46.8775811048564
 20
-38.36382132592252
 10
48.69768727786601
 20
-35.78181074367052
 10
50.39080826567857
 20
-33.15747211908655
 10
51.95694583196257
 20
-30.40614936750654
 10
53.35377158165227
 20
-27.61249857359451
 10
54.58128480928036
 20
-24.73419240048594
 10
55.68181390991236
 20
-21.77122802631112
 10
56.57070279888427
 20
-18.76593772620652
 10
57.33260756086037
 20
-15.71831867830252
 10
57.9252001535084
 20
-12.62837158806656
 10
58.34848057682831
 20
-9.53842414509694
 10
58.60244883082026
 20
-6.406149012528942
  0
LWPOLYLINE
  5
95
100
AcDbEntity
  8
120mm_fan-Mounting_hole_pattern
  6
ByLayer
 62
    7
370
   -1
100
AcDbPolyline
 90
   10
 70
    0
 43
0
 10
-59.28115047473443
 20
-58.25800157469621
 10
-59.19649439007043
 20
-59.10456242133625
 10
-58.98485417841044
 20
-59.95112326797624
 10
-58.6039017974224
 20
-60.75535607228426
 10
-58.09596528943842
 20
-61.47493279192821
 10
-57.46104465445842
 20
-62.06752538457624
 10
-56.78379597714644
 20
-62.57546189256021
 10
-55.97956317283843
 20
-62.95641427354821
 10
-55.13300232619844
 20
-63.16805448520824
 10
-54.2864418322921
 20
-63.25271056987225
  0
LWPOLYLINE
  5
96
100
AcDbEntity
  8
120mm_fan-Mounting_hole_pattern
  6
ByLayer
 62
    7
370
   -1
100
AcDbPolyline
 90
   10
 70
    0
 43
0
 10
-54.28644147955839
 20
56.74729085228245
 10
-55.13300232619844
 20
56.66263476761844
 10
-55.97956317283843
 20
56.45099455595846
 10
-56.78379597714644
 20
56.07004217497058
 10
-57.46104465445842
 20
55.56210566698644
 10
-58.09596528943842
 20
54.96951307433858
 10
-58.6039017974224
 20
54.24993635469446
 10
-58.98485417841044
 20
53.44570355038644
 10
-59.19649403733672
 20
52.59914270374645
 10
-59.28115012200072
 20
51.75258220984017
  0
LWPOLYLINE
  5
97
100
AcDbEntity
  8
120mm_fan-Mounting_hole_pattern
  6
ByLayer
 62
    7
370
   -1
100
AcDbPolyline
 90
   10
 70
    0
 43
0
 10
60.71885094742026
 20
51.75258185710658
 10
60.63419486275637
 20
52.59914270374645
 10
60.3802266087643
 20
53.44570355038644
 10
60.0416022701084
 20
54.24993635469446
 10
59.53366576212437
 20
54.96951307433858
 10
58.89874512714431
 20
55.56210566698644
 10
58.22149644983227
 20
56.07004217497058
 10
57.41726364552426
 20
56.45099455595846
 10
56.57070279888427
 20
56.66263441488479
 10
55.7241423049781
 20
56.74729049954874
  0
LWPOLYLINE
  5
98
100
AcDbEntity
  8
120mm_fan-Mounting_hole_pattern
  6
ByLayer
 62
    7
370
   -1
100
AcDbPolyline
 90
   10
 70
    0
 43
0
 10
55.72414195224439
 20
-63.25271056987225
 10
56.57070279888427
 20
-63.16805448520824
 10
57.41726364552426
 20
-62.95641427354821
 10
58.22149644983227
 20
-62.57546189256021
 10
58.89874512714431
 20
-62.06752538457624
 10
59.53366576212437
 20
-61.47493279192821
 10
60.0416022701084
 20
-60.75535607228426
 10
60.3802266087643
 20
-59.95112326797624
 10
60.63419451002267
 20
-59.10456242133625
 10
60.71885059468667
 20
-58.25800192742992
  0
LWPOLYLINE
  5
99
100
AcDbEntity
  8
120mm_fan-Mounting_hole_pattern
  6
ByLayer
 62
    7
370
   -1
100
AcDbPolyline
 90
   24
 70
    1
 43
0
 10
-49.63035682303843
 20
49.25522735951859
 10
-49.6726848653704
 20
49.80549190983459
 10
-49.92665311936241
 20
50.31342841781844
 10
-50.26527745801843
 20
50.73670884113858
 10
-50.6885578813384
 20
51.11766122212646
 10
-51.19649438932242
 20
51.32930143378644
 10
-51.74675893963843
 20
51.37162947611858
 10
-52.3393515322864
 20
51.32930143378644
 10
-52.84728804027043
 20
51.11766122212646
 10
-53.27056846359039
 20
50.73670884113858
 10
-53.60919280224641
 20
50.31342841781844
 10
-53.86316105623843
 20
49.80549190983459
 10
-53.9054890985704
 20
49.25522735951859
 10
-53.86316105623843
 20
48.66263476687044
 10
-53.60919280224641
 20
48.15469825888658
 10
-53.27056846359039
 20
47.73141783556645
 10
-52.84728804027043
 20
47.39279349691049
 10
-52.3393515322864
 20
47.18115328525045
 10
-51.74675893963843
 20
47.09649720058644
 10
-51.19649438932242
 20
47.18115328525045
 10
-50.6885578813384
 20
47.39279349691049
 10
-50.26527745801843
 20
47.73141783556645
 10
-49.92665311936241
 20
48.15469825888658
 10
-49.6726848653704
 20
48.66263476687044
  0
LWPOLYLINE
  5
9A
100
AcDbEntity
  8
120mm_fan-Mounting_hole_pattern
  6
ByLayer
 62
    7
370
   -1
100
AcDbPolyline
 90
   24
 70
    1
 43
0
 10
55.3431895712564
 20
49.25522735951859
 10
55.30086152892426
 20
49.80549190983459
 10
55.0468932749323
 20
50.31342841781844
 10
54.7082689362764
 20
50.73670884113858
 10
54.28498851295626
 20
51.11766122212646
 10
53.7770520049724
 20
51.32930143378644
 10
53.18445941232426
 20
51.37162947611858
 10
52.63419486200826
 20
51.32930143378644
 10
52.1262583540244
 20
51.11766122212646
 10
51.70297793070426
 20
50.73670884113858
 10
51.32202554971627
 20
50.31342841781844
 10
51.1103853380564
 20
49.80549190983459
 10
51.06805729572426
 20
49.25522735951859
 10
51.1103853380564
 20
48.66263476687044
 10
51.32202554971627
 20
48.15469825888658
 10
51.70297793070426
 20
47.73141783556645
 10
52.1262583540244
 20
47.39279349691049
 10
52.63419486200826
 20
47.18115328525045
 10
53.18445941232426
 20
47.09649720058644
 10
53.7770520049724
 20
47.18115328525045
 10
54.28498851295626
 20
47.39279349691049
 10
54.7082689362764
 20
47.73141783556645
 10
55.0468932749323
 20
48.15469825888658
 10
55.30086152892426
 20
48.66263476687044
  0
LWPOLYLINE
  5
9B
100
AcDbEntity
  8
120mm_fan-Mounting_hole_pattern
  6
ByLayer
 62
    7
370
   -1
100
AcDbPolyline
 90
   24
 70
    1
 43
0
 10
-49.63035682303843
 20
-55.76064707710822
 10
-49.6726848653704
 20
-55.21038252679222
 10
-49.92665311936241
 20
-54.66011797647622
 10
-50.26527745801843
 20
-54.23683755315625
 10
-50.6885578813384
 20
-53.89821321450023
 10
-51.19649438932242
 20
-53.68657300284025
 10
-51.74675893963843
 20
-53.60191691817624
 10
-52.3393515322864
 20
-53.68657300284025
 10
-52.84728804027043
 20
-53.89821321450023
 10
-53.27056846359039
 20
-54.23683755315625
 10
-53.60919280224641
 20
-54.66011797647622
 10
-53.86316105623843
 20
-55.21038252679222
 10
-53.9054890985704
 20
-55.76064707710822
 10
-53.86316105623843
 20
-56.31091162742422
 10
-53.60919280224641
 20
-56.81884813540825
 10
-53.27056846359039
 20
-57.28445660106024
 10
-52.84728804027043
 20
-57.62308093971626
 10
-52.3393515322864
 20
-57.83472115137624
 10
-51.74675893963843
 20
-57.91937723604025
 10
-51.19649438932242
 20
-57.83472115137624
 10
-50.6885578813384
 20
-57.62308093971626
 10
-50.26527745801843
 20
-57.28445660106024
 10
-49.92665311936241
 20
-56.81884813540825
 10
-49.6726848653704
 20
-56.31091162742422
  0
LWPOLYLINE
  5
9C
100
AcDbEntity
  8
120mm_fan-Mounting_hole_pattern
  6
ByLayer
 62
    7
370
   -1
100
AcDbPolyline
 90
   24
 70
    1
 43
0
 10
55.3431895712564
 20
-55.76064707710822
 10
55.30086152892426
 20
-55.21038252679222
 10
55.0468932749323
 20
-54.66011797647622
 10
54.7082689362764
 20
-54.23683755315625
 10
54.28498851295626
 20
-53.89821321450023
 10
53.7770520049724
 20
-53.68657300284025
 10
53.18445941232426
 20
-53.60191691817624
 10
52.63419486200826
 20
-53.68657300284025
 10
52.1262583540244
 20
-53.89821321450023
 10
51.70297793070426
 20
-54.23683755315625
 10
51.32202554971627
 20
-54.66011797647622
 10
51.1103853380564
 20
-55.21038252679222
 10
51.06805729572426
 20
-55.76064707710822
 10
51.1103853380564
 20
-56.31091162742422
 10
51.32202554971627
 20
-56.81884813540825
 10
51.70297793070426
 20
-57.28445660106024
 10
52.1262583540244
 20
-57.62308093971626
 10
52.63419486200826
 20
-57.83472115137624
 10
53.18445941232426
 20
-57.91937723604025
 10
53.7770520049724
 20
-57.83472115137624
 10
54.28498851295626
 20
-57.62308093971626
 10
54.7082689362764
 20
-57.28445660106024
 10
55.0468932749323
 20
-56.81884813540825
 10
55.30086152892426
 20
-56.31091162742422
  0
ENDBLK
  5
69
330
67
100
AcDbEntity
  8
0
100
AcDbBlockEnd
  0
ENDSEC
  0
SECTION
  2
ENTITIES
  0
LWPOLYLINE
  5
9D
100
AcDbEntity
  8
filters
  6
ByLayer
 62
  256
370
   -1
100
AcDbPolyline
 90
    4
 70
    1
 43
0
 10
120.9048478989105
 20
136.7463866435681
 10
155.9174805034495
 20
136.7463866435681
 10
155.9174805034495
 20
422.7479844144092
 10
120.9048478989105
 20
422.7479844144092
  0
LWPOLYLINE
  5
9E
100
AcDbEntity
  8
filters
  6
ByLayer
 62
  256
370
   -1
100
AcDbPolyline
 90
    4
 70
    1
 43
0
 10
441.9190782742907
 20
101.7337540390291
 10
441.9190782742907
 20
136.7463866435681
 10
155.9174805034495
 20
136.7463866435681
 10
155.9174805034495
 20
101.7337540390292
  0
LWPOLYLINE
  5
9F
100
AcDbEntity
  8
filters
  6
ByLayer
 62
  256
370
   -1
100
AcDbPolyline
 90
    4
 70
    1
 43
0
 10
441.9190782742907
 20
422.7479844144092
 10
441.9190782742907
 20
457.7606170189482
 10
155.9174805034495
 20
457.7606170189482
 10
155.9174805034495
 20
422.7479844144092
  0
LWPOLYLINE
  5
A0
100
AcDbEntity
  8
filters
  6
ByLayer
 62
  256
370
   -1
100
AcDbPolyline
 90
    4
 70
    1
 43
0
 10
441.9190782742907
 20
136.7463866435681
 10
476.9317108788297
 20
136.7463866435681
 10
476.9317108788297
 20
422.7479844144092
 10
441.9190782742907
 20
422.7479844144092
  0
LWPOLYLINE
  5
A1
100
AcDbEntity
  8
paaltjes
  6
ByLayer
 62
  256
370
   -1
100
AcDbPolyline
 90
    4
 70
    1
 43
0
 10
111.9174805034495
 20
466.7479844144092
 10
155.9174805034495
 20
466.7479844144092
 10
155.9174805034495
 20
422.7479844144092
 10
111.9174805034495
 20
422.7479844144092
  0
LWPOLYLINE
  5
A2
100
AcDbEntity
  8
paaltjes
  6
ByLayer
 62
  256
370
   -1
100
AcDbPolyline
 90
    4
 70
    1
 43
0
 10
111.9174805034495
 20
136.7463866435681
 10
155.9174805034495
 20
136.7463866435681
 10
155.9174805034495
 20
92.74638664356814
 10
111.9174805034495
 20
92.74638664356814
  0
LWPOLYLINE
  5
A3
100
AcDbEntity
  8
paaltjes
  6
ByLayer
 62
  256
370
   -1
100
AcDbPolyline
 90
    4
 70
    1
 43
0
 10
441.9190782742907
 20
466.7479844144092
 10
485.9190782742907
 20
466.7479844144092
 10
485.9190782742907
 20
422.7479844144092
 10
441.9190782742907
 20
422.7479844144092
  0
LWPOLYLINE
  5
A4
100
AcDbEntity
  8
paaltjes
  6
ByLayer
 62
  256
370
   -1
100
AcDbPolyline
 90
    4
 70
    1
 43
0
 10
441.9190782742907
 20
136.7463866435682
 10
485.9190782742907
 20
136.7463866435682
 10
485.9190782742907
 20
92.7463866435682
 10
441.9190782742907
 20
92.7463866435682
  0
DIMENSION
  5
A5
100
AcDbEntity
  8
lengths
  6
ByLayer
 62
  256
370
   -1
100
AcDbDimension
  2
*D1
 10
441.9190782742907
 20
136.7463866435681
 30
0
 11
298.9182793888701
 21
138.6213866435681
 31
0
 70
   32
 71
    5
 72
    0
  3
Standard
 53
0
210
0
220
0
230
1
100
AcDbAlignedDimension
 13
155.9174805034495
 23
136.7463866435681
 33
0
 14
441.9190782742907
 24
136.7463866435682
 34
0
100
AcDbRotatedDimension
  0
DIMENSION
  5
A6
100
AcDbEntity
  8
lengths
  6
ByLayer
 62
  256
370
   -1
100
AcDbDimension
  2
*D2
 10
441.8982506456207
 20
362.7705766946552
 30
0
 11
381.898252580046
 21
364.6455766946552
 31
0
 70
   32
 71
    5
 72
    0
  3
Standard
 53
0
210
0
220
0
230
1
100
AcDbAlignedDimension
 13
321.8982545144713
 23
362.7705754600873
 33
0
 14
441.8982506456207
 24
362.7705766946552
 34
0
100
AcDbRotatedDimension
  0
DIMENSION
  5
A7
100
AcDbEntity
  8
lengths
  6
ByLayer
 62
  256
370
   -1
100
AcDbDimension
  2
*D3
 10
138.3065672911758
 20
136.7463866435681
 30
0
 11
136.4315672911758
 21
279.7471855289887
 31
0
 70
   32
 71
    5
 72
    0
  3
Standard
 53
0
210
0
220
0
230
1
100
AcDbAlignedDimension
 13
138.41116420118
 23
422.7479844144092
 33
0
 14
138.41116420118
 24
136.7463866435681
 34
0
 50
90
100
AcDbRotatedDimension
  0
INSERT
  5
A8
100
AcDbEntity
  8
120mm_fan-Mounting_hole_pattern
  6
ByLayer
 62
  256
370
   -1
100
AcDbBlockReference
  2
fan
 10
223.1794049892058
 20
208.0232853188821
 30
0
 41
1
 42
1
 43
0
 50
0
 70
    1
 71
    1
 44
0
 45
0
  0
INSERT
  5
A9
100
AcDbEntity
  8
120mm_fan-Mounting_hole_pattern
  6
ByLayer
 62
  256
370
   -1
100
AcDbBlockReference
  2
fan
 10
223.1794049892058
 20
358.0232853188821
 30
0
 41
1
 42
1
 43
0
 50
0
 70
    1
 71
    1
 44
0
 45
0
  0
INSERT
  5
AA
100
AcDbEntity
  8
120mm_fan-Mounting_hole_pattern
  6
ByLayer
 62
  256
370
   -1
100
AcDbBlockReference
  2
fan
 10
373.1794049892058
 20
358.0232853188821
 30
0
 41
1
 42
1
 43
0
 50
0
 70
    1
 71
    1
 44
0
 45
0
  0
INSERT
  5
AB
100
AcDbEntity
  8
120mm_fan-Mounting_hole_pattern
  6
ByLayer
 62
  256
370
   -1
100
AcDbBlockReference
  2
fan
 10
373.1794049892058
 20
208.0232853188821
 30
0
 41
1
 42
1
 43
0
 50
0
 70
    1
 71
    1
 44
0
 45
0
  0
DIMENSION
  5
AC
100
AcDbEntity
  8
measurements
  6
ByLayer
 62
  256
370
   -1
100
AcDbDimension
  2
*D4
 10
273.8988198294718
 20
264.7705786403004
 30
0
 11
272.0238198294718
 21
279.7705766946551
 31
0
 70
   32
 71
    5
  3
Standard
 53
0
210
0
220
0
230
1
100
AcDbAlignedDimension
 13
262.6106103030628
 23
294.7705747490098
 33
0
 14
263.4625506446786
 24
264.7705786403004
 34
0
 50
90
100
AcDbRotatedDimension
  0
DIMENSION
  5
AD
100
AcDbEntity
  8
measurements
  6
ByLayer
 62
  256
370
   -1
100
AcDbDimension
  2
*D5
 10
313.8982545144714
 20
248.3406095809985
 30
0
 11
298.8982525800461
 21
250.2156095809985
 31
0
 70
   32
 71
    5
  3
Standard
 53
0
210
0
220
0
230
1
100
AcDbAlignedDimension
 13
283.8982506456208
 23
243.0159824458999
 33
0
 14
313.8982545144714
 24
242.1640421042842
 34
0
100
AcDbRotatedDimension
  0
DIMENSION
  5
AE
100
AcDbEntity
  8
measurements
  6
ByLayer
 62
  256
370
   -1
100
AcDbDimension
  2
*D6
 10
163.8982545144714
 20
314.3659860562211
 30
0
 11
159.9078675089604
 21
316.2409860562211
 31
0
 70
   32
 71
    5
  3
Standard
 53
0
210
0
220
0
230
1
100
AcDbAlignedDimension
 13
155.9174805034495
 23
311.3841948605659
 33
0
 14
163.8982545144714
 24
310.958224689758
 34
0
100
AcDbRotatedDimension
  0
LWPOLYLINE
  5
AF
100
AcDbEntity
  8
top plaat
  6
ByLayer
 62
  256
370
   -1
100
AcDbPolyline
 90
    4
 70
    1
 43
0
 10
111.9174805034495
 20
466.7479844144091
 10
485.9190782742907
 20
466.7479844144091
 10
485.9190782742907
 20
92.7463866435682
 10
111.9174805034495
 20
92.7463866435682
  0
CIRCLE
  5
B0
100
AcDbEntity
  8
screw holes fans
  6
ByLayer
 62
    7
370
   -1
100
AcDbCircle
 10
171.4326460495674
 20
407.2573486572346
 40
2.137566137766072
  0
CIRCLE
  5
B1
100
AcDbEntity
  8
screw holes fans
  6
ByLayer
 62
    7
370
   -1
100
AcDbCircle
 10
276.36386440153
 20
407.2573486572346
 40
2.1375661377661
  0
CIRCLE
  5
B2
100
AcDbEntity
  8
screw holes fans
  6
ByLayer
 62
    7
370
   -1
100
AcDbCircle
 10
321.432646049567
 20
407.2573486572346
 40
2.137566137766072
  0
CIRCLE
  5
B3
100
AcDbEntity
  8
screw holes fans
  6
ByLayer
 62
    7
370
   -1
100
AcDbCircle
 10
426.36386440153
 20
407.2573486572346
 40
2.1375661377661
  0
CIRCLE
  5
B4
100
AcDbEntity
  8
screw holes fans
  6
ByLayer
 62
    7
370
   -1
100
AcDbCircle
 10
426.36386440153
 20
302.2626382417739
 40
2.158730158932002
  0
CIRCLE
  5
B5
100
AcDbEntity
  8
screw holes fans
  6
ByLayer
 62
    7
370
   -1
100
AcDbCircle
 10
321.4326460495674
 20
302.2626382417739
 40
2.158730158932002
  0
CIRCLE
  5
B6
100
AcDbEntity
  8
screw holes fans
  6
ByLayer
 62
    7
370
   -1
100
AcDbCircle
 10
276.36386440153
 20
302.2626382417739
 40
2.158730158932002
  0
CIRCLE
  5
B7
100
AcDbEntity
  8
screw holes fans
  6
ByLayer
 62
    7
370
   -1
100
AcDbCircle
 10
171.4326460495676
 20
302.2626382417739
 40
2.158730158932002
  0
CIRCLE
  5
B8
100
AcDbEntity
  8
screw holes fans
  6
ByLayer
 62
    7
370
   -1
100
AcDbCircle
 10
171.4326460495671
 20
257.2573486572346
 40
2.137566137766058
  0
CIRCLE
  5
B9
100
AcDbEntity
  8
screw holes fans
  6
ByLayer
 62
    7
370
   -1
100
AcDbCircle
 10
276.3638644015302
 20
257.2573486572346
 40
2.1375661377661
  0
CIRCLE
  5
BA
100
AcDbEntity
  8
screw holes fans
  6
ByLayer
 62
    7
370
   -1
100
AcDbCircle
 10
321.4326460495672
 20
257.2573486572346
 40
2.137566137766058
  0
CIRCLE
  5
BB
100
AcDbEntity
  8
screw holes fans
  6
ByLayer
 62
    7
370
   -1
100
AcDbCircle
 10
426.3638644015298
 20
257.2573486572346
 40
2.1375661377661
  0
CIRCLE
  5
BC
100
AcDbEntity
  8
screw holes fans
  6
ByLayer
 62
    7
370
   -1
100
AcDbCircle
 10
426.3638644015301
 20
152.2626382417738
 40
2.158730158932002
  0
CIRCLE
  5
BD
100
AcDbEntity
  8
screw holes fans
  6
ByLayer
 62
    7
370
   -1
100
AcDbCircle
 10
321.4326460495674
 20
152.2626382417738
 40
2.158730158932002
  0
CIRCLE
  5
BE
100
AcDbEntity
  8
screw holes fans
  6
ByLayer
 62
    7
370
   -1
100
AcDbCircle
 10
276.3638644015302
 20
152.2626382417738
 40
2.158730158932002
  0
CIRCLE
  5
BF
100
AcDbEntity
  8
screw holes fans
  6
ByLayer
 62
    7
370
   -1
100
AcDbCircle
 10
171.4326460495673
 20
152.2626382417738
 40
2.158730158932002
  0
ENDSEC
  0
SECTION
  2
OBJECTS
  0
DICTIONARY
  5
C
330
0
100
AcDbDictionary
281
    1
  3
ACAD_GROUP
350
D
  0
DICTIONARY
  5
D
330
C
100
AcDbDictionary
281
    1
  0
ENDSEC
  0
EOF
