  0
SECTION
  2
HEADER
  9
$ACADVER
  1
AC1014
  9
$HANDSEED
  5
FFFF
  9
$MEASUREMENT
 70
     1
  0
ENDSEC
  0
SECTION
  2
TABLES
  0
TABLE
  2
VPORT
  5
8
330
0
100
AcDbSymbolTable
 70
     4
  0
VPORT
  5
2E
330
8
100
AcDbSymbolTableRecord
100
AcDbViewportTableRecord
  2
*ACTIVE
 70
     0
 10
0.0
 20
0.0
 11
1.0
 21
1.0
 12
210.0
 22
148.5
 13
0.0
 23
0.0
 14
10.0
 24
10.0
 15
10.0
 25
10.0
 16
0.0
 26
0.0
 36
1.0
 17
0.0
 27
0.0
 37
0.0
 40
341.0
 41
1.24
 42
50.0
 43
0.0
 44
0.0
 50
0.0
 51
0.0
 71
     0
 72
   100
 73
     1
 74
     3
 75
     0
 76
     0
 77
     0
 78
     0
  0
ENDTAB
  0
TABLE
  2
LTYPE
  5
5
330
0
100
AcDbSymbolTable
 70
     1
  0
LTYPE
  5
14
330
5
100
AcDbSymbolTableRecord
100
AcDbLinetypeTableRecord
  2
BYBLOCK
 70
     0
  3

 72
    65
 73
     0
 40
0.0
  0
LTYPE
  5
15
330
5
100
AcDbSymbolTableRecord
100
AcDbLinetypeTableRecord
  2
BYLAYER
 70
     0
  3

 72
    65
 73
     0
 40
0.0
  0
LTYPE
  5
16
330
5
100
AcDbSymbolTableRecord
100
AcDbLinetypeTableRecord
  2
CONTINUOUS
 70
     0
  3
Solid line
 72
    65
 73
     0
 40
0.0
  0
ENDTAB
  0
TABLE
  2
LAYER
  5
2
100
AcDbSymbolTable
 70
2
  0
LAYER
  5
50
100
AcDbSymbolTableRecord
100
AcDbLayerTableRecord
  2
0
 70
0
  6
CONTINUOUS
  0
LAYER
  5
51
100
AcDbSymbolTableRecord
100
AcDbLayerTableRecord
  2
120mm_fan-Mounting_hole_pattern
 70
0
  6
CONTINUOUS
  0
ENDTAB
  0
TABLE
  2
STYLE
  5
3
330
0
100
AcDbSymbolTable
 70
     1
  0
STYLE
  5
11
330
3
100
AcDbSymbolTableRecord
100
AcDbTextStyleTableRecord
  2
STANDARD
 70
     0
 40
0.0
 41
1.0
 50
0.0
 71
     0
 42
2.5
  3
txt
  4

  0
ENDTAB
  0
TABLE
  2
VIEW
  5
6
330
0
100
AcDbSymbolTable
 70
     0
  0
ENDTAB
  0
TABLE
  2
UCS
  5
7
330
0
100
AcDbSymbolTable
 70
     0
  0
ENDTAB
  0
TABLE
  2
APPID
  5
9
330
0
100
AcDbSymbolTable
 70
     2
  0
APPID
  5
12
330
9
100
AcDbSymbolTableRecord
100
AcDbRegAppTableRecord
  2
ACAD
 70
     0
  0
ENDTAB
  0
TABLE
  2
DIMSTYLE
  5
A
330
0
100
AcDbSymbolTable
 70
     1
  0
DIMSTYLE
105
27
330
A
100
AcDbSymbolTableRecord
100
AcDbDimStyleTableRecord
  2
ISO-25
 70
     0
  3

  4

  5

  6

  7

 40
1.0
 41
2.5
 42
0.625
 43
3.75
 44
1.25
 45
0.0
 46
0.0
 47
0.0
 48
0.0
140
2.5
141
2.5
142
0.0
143
0.03937007874016
144
1.0
145
0.0
146
1.0
147
0.625
 71
     0
 72
     0
 73
     0
 74
     0
 75
     0
 76
     0
 77
     1
 78
     8
170
     0
171
     3
172
     1
173
     0
174
     0
175
     0
176
     0
177
     0
178
     0
270
     2
271
     2
272
     2
273
     2
274
     3
340
11
275
     0
280
     0
281
     0
282
     0
283
     0
284
     8
285
     0
286
     0
287
     3
288
     0
  0
ENDTAB
  0
TABLE
  2
BLOCK_RECORD
  5
1
330
0
100
AcDbSymbolTable
 70
     1
  0
BLOCK_RECORD
  5
1F
330
1
100
AcDbSymbolTableRecord
100
AcDbBlockTableRecord
  2
*MODEL_SPACE
  0
BLOCK_RECORD
  5
1B
330
1
100
AcDbSymbolTableRecord
100
AcDbBlockTableRecord
  2
*PAPER_SPACE
  0
ENDTAB
  0
ENDSEC
  0
SECTION
  2
BLOCKS
  0
BLOCK
  5
20
330
1F
100
AcDbEntity
  8
0
100
AcDbBlockBegin
  2
*MODEL_SPACE
 70
     0
 10
0.0
 20
0.0
 30
0.0
  3
*MODEL_SPACE
  1

  0
ENDBLK
  5
21
330
1F
100
AcDbEntity
  8
0
100
AcDbBlockEnd
  0
BLOCK
  5
1C
330
1B
100
AcDbEntity
 67
     1
  8
0
100
AcDbBlockBegin
  2
*PAPER_SPACE
  1

  0
ENDBLK
  5
1D
330
1B
100
AcDbEntity
 67
     1
  8
0
100
AcDbBlockEnd
  0
ENDSEC
  0
SECTION
  2
ENTITIES
  0
LWPOLYLINE
  5
100
100
AcDbEntity
  8
120mm_fan-Mounting_hole_pattern
 62
7
100
AcDbPolyline
 90
2
 70
0
 10
181.079965
 20
187.200010
 30
0.0
 10
181.079965
 20
499.080014
 30
0.0
  0
LWPOLYLINE
  5
101
100
AcDbEntity
  8
120mm_fan-Mounting_hole_pattern
 62
7
100
AcDbPolyline
 90
2
 70
0
 10
507.119969
 20
173.040010
 30
0.0
 10
195.239964
 20
173.040010
 30
0.0
  0
LWPOLYLINE
  5
102
100
AcDbEntity
  8
120mm_fan-Mounting_hole_pattern
 62
7
100
AcDbPolyline
 90
2
 70
0
 10
202.439965
 20
492.000006
 30
0.0
 10
202.439965
 20
486.480021
 30
0.0
  0
LWPOLYLINE
  5
103
100
AcDbEntity
  8
120mm_fan-Mounting_hole_pattern
 62
7
100
AcDbPolyline
 90
2
 70
0
 10
202.439965
 20
484.320014
 30
0.0
 10
202.439965
 20
482.160014
 30
0.0
  0
LWPOLYLINE
  5
104
100
AcDbEntity
  8
120mm_fan-Mounting_hole_pattern
 62
7
100
AcDbPolyline
 90
2
 70
0
 10
521.279954
 20
499.080014
 30
0.0
 10
521.279954
 20
187.200017
 30
0.0
  0
LWPOLYLINE
  5
105
100
AcDbEntity
  8
120mm_fan-Mounting_hole_pattern
 62
7
100
AcDbPolyline
 90
2
 70
0
 10
195.239972
 20
513.240021
 30
0.0
 10
507.119946
 20
513.240021
 30
0.0
  0
LWPOLYLINE
  5
106
100
AcDbEntity
  8
120mm_fan-Mounting_hole_pattern
 62
7
100
AcDbPolyline
 90
116
 70
1
 10
515.519969
 20
343.080012
 30
0.0
 10
515.279969
 20
352.080012
 30
0.0
 10
514.559969
 20
360.960012
 30
0.0
 10
513.359969
 20
369.720012
 30
0.0
 10
511.679969
 20
378.480013
 30
0.0
 10
509.519969
 20
387.120013
 30
0.0
 10
506.999969
 20
395.640014
 30
0.0
 10
503.879969
 20
404.040012
 30
0.0
 10
500.399969
 20
412.200016
 30
0.0
 10
496.439968
 20
420.120013
 30
0.0
 10
491.999968
 20
427.920013
 30
0.0
 10
487.199970
 20
435.360013
 30
0.0
 10
482.039969
 20
442.680013
 30
0.0
 10
476.519969
 20
449.520013
 30
0.0
 10
470.519968
 20
456.240013
 30
0.0
 10
464.279968
 20
462.480013
 30
0.0
 10
457.559969
 20
468.480013
 30
0.0
 10
450.719967
 20
474.000013
 30
0.0
 10
443.399965
 20
479.160014
 30
0.0
 10
435.959968
 20
483.960014
 30
0.0
 10
428.159968
 20
488.400006
 30
0.0
 10
420.239968
 20
492.360006
 30
0.0
 10
412.079968
 20
495.840006
 30
0.0
 10
403.679975
 20
498.960014
 30
0.0
 10
395.159967
 20
501.600014
 30
0.0
 10
386.519967
 20
503.640014
 30
0.0
 10
377.759975
 20
505.320021
 30
0.0
 10
368.999967
 20
506.520014
 30
0.0
 10
360.119967
 20
507.240014
 30
0.0
 10
351.119967
 20
507.600014
 30
0.0
 10
342.239974
 20
507.240014
 30
0.0
 10
333.359967
 20
506.520014
 30
0.0
 10
324.599967
 20
505.320021
 30
0.0
 10
315.839974
 20
503.640014
 30
0.0
 10
307.199959
 20
501.600014
 30
0.0
 10
298.679966
 20
498.960014
 30
0.0
 10
290.279959
 20
495.840006
 30
0.0
 10
282.119959
 20
492.360006
 30
0.0
 10
274.199958
 20
488.400006
 30
0.0
 10
266.399966
 20
483.960014
 30
0.0
 10
258.959973
 20
479.160014
 30
0.0
 10
251.639966
 20
474.000013
 30
0.0
 10
244.799973
 20
468.480013
 30
0.0
 10
238.079958
 20
462.480013
 30
0.0
 10
231.839973
 20
456.240013
 30
0.0
 10
225.839973
 20
449.520013
 30
0.0
 10
220.319958
 20
442.680013
 30
0.0
 10
215.159958
 20
435.360013
 30
0.0
 10
210.359965
 20
427.920013
 30
0.0
 10
205.919973
 20
420.120013
 30
0.0
 10
201.959973
 20
412.200016
 30
0.0
 10
198.479965
 20
404.040012
 30
0.0
 10
195.359965
 20
395.640014
 30
0.0
 10
192.839972
 20
387.120013
 30
0.0
 10
190.679965
 20
378.480013
 30
0.0
 10
188.999972
 20
369.720012
 30
0.0
 10
187.799972
 20
360.960012
 30
0.0
 10
187.079957
 20
352.080012
 30
0.0
 10
186.839972
 20
343.080012
 30
0.0
 10
187.079957
 20
334.200012
 30
0.0
 10
187.799972
 20
325.320012
 30
0.0
 10
188.999972
 20
316.560011
 30
0.0
 10
190.679965
 20
307.800011
 30
0.0
 10
192.839972
 20
299.160011
 30
0.0
 10
195.359965
 20
290.640013
 30
0.0
 10
198.479965
 20
282.240009
 30
0.0
 10
201.959973
 20
274.080011
 30
0.0
 10
205.919973
 20
266.160011
 30
0.0
 10
210.359965
 20
258.360011
 30
0.0
 10
215.159958
 20
250.920011
 30
0.0
 10
220.319958
 20
243.600011
 30
0.0
 10
225.839973
 20
236.640010
 30
0.0
 10
231.839973
 20
230.040010
 30
0.0
 10
238.079958
 20
223.800018
 30
0.0
 10
244.799973
 20
217.800018
 30
0.0
 10
251.639966
 20
212.280018
 30
0.0
 10
258.959973
 20
207.000010
 30
0.0
 10
266.399966
 20
202.200010
 30
0.0
 10
274.199958
 20
197.880002
 30
0.0
 10
282.119959
 20
193.920010
 30
0.0
 10
290.279959
 20
190.440010
 30
0.0
 10
298.679966
 20
187.320017
 30
0.0
 10
307.199959
 20
184.680010
 30
0.0
 10
315.839974
 20
182.520010
 30
0.0
 10
324.599967
 20
180.840002
 30
0.0
 10
333.359967
 20
179.640010
 30
0.0
 10
342.239974
 20
178.920010
 30
0.0
 10
351.119967
 20
178.680010
 30
0.0
 10
360.119967
 20
178.920010
 30
0.0
 10
368.999967
 20
179.640010
 30
0.0
 10
377.759975
 20
180.840002
 30
0.0
 10
386.519967
 20
182.520010
 30
0.0
 10
395.159967
 20
184.680010
 30
0.0
 10
403.679975
 20
187.320017
 30
0.0
 10
412.079968
 20
190.440010
 30
0.0
 10
420.239968
 20
193.920010
 30
0.0
 10
428.159968
 20
197.880002
 30
0.0
 10
435.959968
 20
202.200010
 30
0.0
 10
443.399965
 20
207.000010
 30
0.0
 10
450.719967
 20
212.280018
 30
0.0
 10
457.559969
 20
217.800018
 30
0.0
 10
464.279968
 20
223.800018
 30
0.0
 10
470.519968
 20
230.040010
 30
0.0
 10
476.519969
 20
236.640010
 30
0.0
 10
482.039969
 20
243.600011
 30
0.0
 10
487.199970
 20
250.920011
 30
0.0
 10
491.999968
 20
258.360011
 30
0.0
 10
496.439968
 20
266.160011
 30
0.0
 10
500.399969
 20
274.080011
 30
0.0
 10
503.879969
 20
282.240009
 30
0.0
 10
506.999969
 20
290.640013
 30
0.0
 10
509.519969
 20
299.160011
 30
0.0
 10
511.679969
 20
307.800011
 30
0.0
 10
513.359969
 20
316.560011
 30
0.0
 10
514.559969
 20
325.320012
 30
0.0
 10
515.279969
 20
334.200012
 30
0.0
  0
LWPOLYLINE
  5
107
100
AcDbEntity
  8
120mm_fan-Mounting_hole_pattern
 62
7
100
AcDbPolyline
 90
10
 70
0
 10
181.079965
 20
187.200010
 30
0.0
 10
181.319965
 20
184.800010
 30
0.0
 10
181.919965
 20
182.400010
 30
0.0
 10
182.999965
 20
180.120010
 30
0.0
 10
184.439965
 20
178.080010
 30
0.0
 10
186.239965
 20
176.400010
 30
0.0
 10
188.159965
 20
174.960010
 30
0.0
 10
190.439965
 20
173.880010
 30
0.0
 10
192.839965
 20
173.280010
 30
0.0
 10
195.239964
 20
173.040010
 30
0.0
  0
LWPOLYLINE
  5
108
100
AcDbEntity
  8
120mm_fan-Mounting_hole_pattern
 62
7
100
AcDbPolyline
 90
10
 70
0
 10
195.239965
 20
513.240014
 30
0.0
 10
192.839965
 20
513.000014
 30
0.0
 10
190.439965
 20
512.400014
 30
0.0
 10
188.159965
 20
511.320014
 30
0.0
 10
186.239965
 20
509.880014
 30
0.0
 10
184.439965
 20
508.200014
 30
0.0
 10
182.999965
 20
506.160014
 30
0.0
 10
181.919965
 20
503.880014
 30
0.0
 10
181.319966
 20
501.480014
 30
0.0
 10
181.079966
 20
499.080015
 30
0.0
  0
LWPOLYLINE
  5
109
100
AcDbEntity
  8
120mm_fan-Mounting_hole_pattern
 62
7
100
AcDbPolyline
 90
10
 70
0
 10
521.279969
 20
499.080014
 30
0.0
 10
521.039969
 20
501.480014
 30
0.0
 10
520.319969
 20
503.880014
 30
0.0
 10
519.359969
 20
506.160014
 30
0.0
 10
517.919969
 20
508.200014
 30
0.0
 10
516.119969
 20
509.880014
 30
0.0
 10
514.199969
 20
511.320014
 30
0.0
 10
511.919969
 20
512.400014
 30
0.0
 10
509.519969
 20
513.000013
 30
0.0
 10
507.119970
 20
513.240013
 30
0.0
  0
LWPOLYLINE
  5
10a
100
AcDbEntity
  8
120mm_fan-Mounting_hole_pattern
 62
7
100
AcDbPolyline
 90
10
 70
0
 10
507.119969
 20
173.040010
 30
0.0
 10
509.519969
 20
173.280010
 30
0.0
 10
511.919969
 20
173.880010
 30
0.0
 10
514.199969
 20
174.960010
 30
0.0
 10
516.119969
 20
176.400010
 30
0.0
 10
517.919969
 20
178.080010
 30
0.0
 10
519.359969
 20
180.120010
 30
0.0
 10
520.319969
 20
182.400010
 30
0.0
 10
521.039968
 20
184.800010
 30
0.0
 10
521.279968
 20
187.200009
 30
0.0
  0
LWPOLYLINE
  5
10b
100
AcDbEntity
  8
120mm_fan-Mounting_hole_pattern
 62
7
100
AcDbPolyline
 90
24
 70
1
 10
208.439965
 20
492.000014
 30
0.0
 10
208.319965
 20
493.560014
 30
0.0
 10
207.599965
 20
495.000014
 30
0.0
 10
206.639965
 20
496.200014
 30
0.0
 10
205.439965
 20
497.280014
 30
0.0
 10
203.999965
 20
497.880014
 30
0.0
 10
202.439965
 20
498.000014
 30
0.0
 10
200.759965
 20
497.880014
 30
0.0
 10
199.319965
 20
497.280014
 30
0.0
 10
198.119965
 20
496.200014
 30
0.0
 10
197.159965
 20
495.000014
 30
0.0
 10
196.439965
 20
493.560014
 30
0.0
 10
196.319965
 20
492.000014
 30
0.0
 10
196.439965
 20
490.320014
 30
0.0
 10
197.159965
 20
488.880014
 30
0.0
 10
198.119965
 20
487.680014
 30
0.0
 10
199.319965
 20
486.720014
 30
0.0
 10
200.759965
 20
486.120014
 30
0.0
 10
202.439965
 20
485.880014
 30
0.0
 10
203.999965
 20
486.120014
 30
0.0
 10
205.439965
 20
486.720014
 30
0.0
 10
206.639965
 20
487.680014
 30
0.0
 10
207.599965
 20
488.880014
 30
0.0
 10
208.319965
 20
490.320014
 30
0.0
  0
LWPOLYLINE
  5
10c
100
AcDbEntity
  8
120mm_fan-Mounting_hole_pattern
 62
7
100
AcDbPolyline
 90
24
 70
1
 10
506.039969
 20
492.000014
 30
0.0
 10
505.919969
 20
493.560014
 30
0.0
 10
505.199969
 20
495.000014
 30
0.0
 10
504.239969
 20
496.200014
 30
0.0
 10
503.039969
 20
497.280014
 30
0.0
 10
501.599969
 20
497.880014
 30
0.0
 10
499.919969
 20
498.000014
 30
0.0
 10
498.359969
 20
497.880014
 30
0.0
 10
496.919969
 20
497.280014
 30
0.0
 10
495.719969
 20
496.200014
 30
0.0
 10
494.639969
 20
495.000014
 30
0.0
 10
494.039969
 20
493.560014
 30
0.0
 10
493.919969
 20
492.000014
 30
0.0
 10
494.039969
 20
490.320014
 30
0.0
 10
494.639969
 20
488.880014
 30
0.0
 10
495.719969
 20
487.680014
 30
0.0
 10
496.919969
 20
486.720014
 30
0.0
 10
498.359969
 20
486.120014
 30
0.0
 10
499.919969
 20
485.880014
 30
0.0
 10
501.599969
 20
486.120014
 30
0.0
 10
503.039969
 20
486.720014
 30
0.0
 10
504.239969
 20
487.680014
 30
0.0
 10
505.199969
 20
488.880014
 30
0.0
 10
505.919969
 20
490.320014
 30
0.0
  0
LWPOLYLINE
  5
10d
100
AcDbEntity
  8
120mm_fan-Mounting_hole_pattern
 62
7
100
AcDbPolyline
 90
24
 70
1
 10
208.439965
 20
194.280010
 30
0.0
 10
208.319965
 20
195.840010
 30
0.0
 10
207.599965
 20
197.400010
 30
0.0
 10
206.639965
 20
198.600010
 30
0.0
 10
205.439965
 20
199.560010
 30
0.0
 10
203.999965
 20
200.160010
 30
0.0
 10
202.439965
 20
200.400010
 30
0.0
 10
200.759965
 20
200.160010
 30
0.0
 10
199.319965
 20
199.560010
 30
0.0
 10
198.119965
 20
198.600010
 30
0.0
 10
197.159965
 20
197.400010
 30
0.0
 10
196.439965
 20
195.840010
 30
0.0
 10
196.319965
 20
194.280010
 30
0.0
 10
196.439965
 20
192.720010
 30
0.0
 10
197.159965
 20
191.280010
 30
0.0
 10
198.119965
 20
189.960010
 30
0.0
 10
199.319965
 20
189.000010
 30
0.0
 10
200.759965
 20
188.400010
 30
0.0
 10
202.439965
 20
188.160010
 30
0.0
 10
203.999965
 20
188.400010
 30
0.0
 10
205.439965
 20
189.000010
 30
0.0
 10
206.639965
 20
189.960010
 30
0.0
 10
207.599965
 20
191.280010
 30
0.0
 10
208.319965
 20
192.720010
 30
0.0
  0
LWPOLYLINE
  5
10e
100
AcDbEntity
  8
120mm_fan-Mounting_hole_pattern
 62
7
100
AcDbPolyline
 90
24
 70
1
 10
506.039969
 20
194.280010
 30
0.0
 10
505.919969
 20
195.840010
 30
0.0
 10
505.199969
 20
197.400010
 30
0.0
 10
504.239969
 20
198.600010
 30
0.0
 10
503.039969
 20
199.560010
 30
0.0
 10
501.599969
 20
200.160010
 30
0.0
 10
499.919969
 20
200.400010
 30
0.0
 10
498.359969
 20
200.160010
 30
0.0
 10
496.919969
 20
199.560010
 30
0.0
 10
495.719969
 20
198.600010
 30
0.0
 10
494.639969
 20
197.400010
 30
0.0
 10
494.039969
 20
195.840010
 30
0.0
 10
493.919969
 20
194.280010
 30
0.0
 10
494.039969
 20
192.720010
 30
0.0
 10
494.639969
 20
191.280010
 30
0.0
 10
495.719969
 20
189.960010
 30
0.0
 10
496.919969
 20
189.000010
 30
0.0
 10
498.359969
 20
188.400010
 30
0.0
 10
499.919969
 20
188.160010
 30
0.0
 10
501.599969
 20
188.400010
 30
0.0
 10
503.039969
 20
189.000010
 30
0.0
 10
504.239969
 20
189.960010
 30
0.0
 10
505.199969
 20
191.280010
 30
0.0
 10
505.919969
 20
192.720010
 30
0.0
  0
ENDSEC
  0
SECTION
  2
OBJECTS
  0
DICTIONARY
  5
C
330
0
100
AcDbDictionary
  3
ACAD_GROUP
350
D
  3
ACAD_MLINESTYLE
350
17
  0
DICTIONARY
  5
D
330
C
100
AcDbDictionary
  0
DICTIONARY
  5
1A
330
C
100
AcDbDictionary
  0
DICTIONARY
  5
17
330
C
100
AcDbDictionary
  3
STANDARD
350
18
  0
DICTIONARY
  5
19
330
C
100
AcDbDictionary
  0
ENDSEC
  0
EOF
